<?xml version="1.0" encoding="utf-8"?>
<!-- Generator: Adobe Illustrator 23.0.1, SVG Export Plug-In . SVG Version: 6.00 Build 0)  -->
<svg version="1.1" id="_ÎÓÈ_1" xmlns="http://www.w3.org/2000/svg" xmlns:xlink="http://www.w3.org/1999/xlink" x="0px" y="0px"
	 viewBox="0 0 600 450" style="enable-background:new 0 0 600 450;" xml:space="preserve">
<style type="text/css">
	.st0{fill:url(#SVGID_1_);}
	.st1{fill:url(#SVGID_2_);}
	.st2{fill:url(#SVGID_3_);}
	.st3{opacity:0.6;fill:#E2E8F0;enable-background:new    ;}
	.st4{fill:url(#SVGID_4_);}
	.st5{fill:url(#SVGID_5_);}
	.st6{fill:url(#SVGID_6_);}
	.st7{fill:url(#SVGID_7_);}
	.st8{fill:#FFFFFF;}
	.st9{opacity:0.4;}
	.st10{fill:#06033E;}
	.st11{fill:url(#SVGID_8_);}
	.st12{fill:url(#SVGID_9_);}
	.st13{fill:#006187;}
	.st14{fill:#015F7C;}
	.st15{fill:#005068;}
	.st16{fill:url(#SVGID_10_);}
	.st17{fill:#353535;}
	.st18{opacity:0.4;fill:#080872;enable-background:new    ;}
	.st19{fill:#E8975B;}
	.st20{fill:#F8359E;}
	.st21{fill:url(#SVGID_11_);}
	.st22{fill:url(#SVGID_12_);}
	.st23{opacity:0.4;fill:#06033E;enable-background:new    ;}
	.st24{fill:url(#SVGID_13_);}
	.st25{fill:url(#SVGID_14_);}
	.st26{fill:url(#SVGID_15_);}
	.st27{fill:url(#SVGID_16_);}
	.st28{fill:url(#SVGID_17_);}
	.st29{fill:#024EA8;}
	.st30{fill:url(#SVGID_18_);}
	.st31{fill:#18A0DC;}
	.st32{fill:#313037;}
	.st33{fill:none;}
	.st34{opacity:0.5;fill:#EDF2F7;enable-background:new    ;}
</style>
<title>laptop</title>
<g>
	
		<linearGradient id="SVGID_1_" gradientUnits="userSpaceOnUse" x1="536.9408" y1="96.0547" x2="578.7595" y2="96.0547" gradientTransform="matrix(1 0 0 -1 0 452)">
		<stop  offset="0" style="stop-color:#007AAE"/>
		<stop  offset="1" style="stop-color:#15A0DB"/>
	</linearGradient>
	<path class="st0" d="M557.8,368.2c-1.6,0-3.1-0.4-4.5-1.2l-15-8.7c-1.3-0.8-1.8-2.5-1-3.8c0.2-0.4,0.6-0.8,1-1l15-8.7
		c2.8-1.6,6.2-1.6,9,0l15,8.6c1.3,0.8,1.8,2.5,1,3.8c-0.2,0.4-0.6,0.8-1,1l-15,8.7C561,367.8,559.4,368.2,557.8,368.2z M557.8,346
		c-1.1,0-2.3,0.3-3.3,0.9l-15,8.7c-0.1,0.1-0.2,0.2-0.2,0.4c0,0.1,0.1,0.3,0.2,0.3l15,8.7l0,0c2,1.2,4.5,1.2,6.6,0l15-8.7
		c0.1-0.1,0.2-0.2,0.2-0.3c0-0.1-0.1-0.3-0.2-0.4l-15-8.7C560.1,346.4,559,346.1,557.8,346z"/>
	
		<linearGradient id="SVGID_2_" gradientUnits="userSpaceOnUse" x1="479.7107" y1="153.352" x2="549.9312" y2="153.352" gradientTransform="matrix(1 0 0 -1 0 452)">
		<stop  offset="0" style="stop-color:#15A0DB"/>
		<stop  offset="1" style="stop-color:#007AAE"/>
	</linearGradient>
	<path class="st1" d="M514.8,318.9c-2.5,0-5-0.7-7.3-1.9l-25.9-14.9c-1.9-1.1-2.5-3.5-1.4-5.4c0.3-0.6,0.8-1.1,1.4-1.4l25.9-14.9
		c4.5-2.6,10-2.6,14.5,0l25.9,14.9c1.9,1.1,2.5,3.5,1.4,5.4c-0.3,0.6-0.8,1.1-1.4,1.4L522.1,317
		C519.9,318.3,517.4,318.9,514.8,318.9z M508.8,314.9c3.8,2.2,8.4,2.2,12.1,0l25.9-14.9c0.5-0.3,0.8-0.7,0.8-1.3
		c0-0.5-0.3-1-0.8-1.3l-25.9-15c-3.8-2.2-8.4-2.2-12.1,0l-25.9,15c-0.5,0.3-0.8,0.7-0.8,1.3c0,0.5,0.3,1,0.8,1.3L508.8,314.9z"/>
	
		<linearGradient id="SVGID_3_" gradientUnits="userSpaceOnUse" x1="16.6375" y1="129.82" x2="86.8485" y2="129.82" gradientTransform="matrix(1 0 0 -1 0 452)">
		<stop  offset="0" style="stop-color:#15A0DB"/>
		<stop  offset="1" style="stop-color:#007AAE"/>
	</linearGradient>
	<path class="st2" d="M51.7,342.5c-2.5,0-5-0.7-7.2-1.9l-25.9-15c-1.9-1.1-2.5-3.5-1.4-5.4c0.3-0.6,0.8-1.1,1.4-1.4l25.9-14.9
		c4.5-2.6,10-2.6,14.5,0l25.9,14.9c1.9,1.1,2.5,3.5,1.4,5.4c-0.3,0.6-0.8,1.1-1.4,1.4l-25.9,15C56.8,341.8,54.3,342.5,51.7,342.5z
		 M51.7,304.3c-2.1,0-4.2,0.6-6.1,1.6l-25.9,14.9c-0.5,0.3-0.8,0.8-0.8,1.3c0,0.5,0.3,1,0.8,1.3l25.9,14.9l0,0
		c3.7,2.2,8.4,2.2,12.1,0l25.9-14.9c0.5-0.3,0.8-0.7,0.8-1.3c0-0.6-0.3-1.1-0.8-1.3l-25.9-14.9C56,304.8,53.9,304.3,51.7,304.3
		L51.7,304.3z"/>
	<path class="st3" d="M314,407.7L128.8,300.8c-2.7-1.6-2.4-4.3,0.8-6.1l118.9-68.6c3.1-1.8,7.8-2,10.5-0.4l185.2,106.9
		c2.7,1.6,2.4,4.3-0.8,6.1l-118.8,68.6C321.4,409,316.7,409.3,314,407.7z"/>
	
		<linearGradient id="SVGID_4_" gradientUnits="userSpaceOnUse" x1="98.4386" y1="134.3008" x2="473.1827" y2="134.3008" gradientTransform="matrix(1 0 0 -1 0 452)">
		<stop  offset="0" style="stop-color:#15A0DB"/>
		<stop  offset="1" style="stop-color:#007AAE"/>
	</linearGradient>
	<path class="st4" d="M318.2,427c-2,0-4-0.4-5.8-1.4l0,0l-211.3-122c-1.5-0.8-2.5-2.3-2.6-4c0-1.9,1.3-3.7,3.5-5l144-84.4
		c4-2.3,9.8-2.6,13.2-0.5l211.3,121.9c1.6,0.8,2.6,2.3,2.7,4.1c0,1.8-1.3,3.7-3.5,5l-144.1,84.4C323.3,426.4,320.8,427,318.2,427z
		 M253.4,210.8c-2.2,0-4.3,0.5-6.2,1.5l-144,84.4c-1.5,0.8-2.4,1.9-2.4,2.9c0.1,0.9,0.7,1.6,1.5,2l211.3,122l0,0
		c2.7,1.6,7.7,1.3,10.8-0.5l144-84.4c1.5-0.9,2.4-1.9,2.4-2.9c-0.1-0.9-0.7-1.6-1.5-2L258,211.8C256.6,211.1,255,210.7,253.4,210.8z
		"/>
	
		<radialGradient id="SVGID_5_" cx="305.4119" cy="411.8106" r="286.2629" gradientTransform="matrix(1 0 0 -1 0 452)" gradientUnits="userSpaceOnUse">
		<stop  offset="0" style="stop-color:#6BC6DA"/>
		<stop  offset="0.36" style="stop-color:#00B9E7"/>
		<stop  offset="0.5" style="stop-color:#00B0DD"/>
		<stop  offset="1" style="stop-color:#008FB9"/>
	</radialGradient>
	<path class="st5" d="M493.3,153.3L308.8,46.9c-1.1-0.7-2.5-0.9-3.8-0.5l0,0l-3.4,1.2l1.2,0.3c-0.5,0.6-0.9,1.3-1.1,2.1L260,185.3
		c-1,3.5,0.4,7.2,3.4,9.1l184.5,106.5c0.4,0.2,0.9,0.4,1.4,0.6l-0.5,1l3.3-1.2l0,0c1.5-0.6,2.6-1.9,3-3.4l41.7-135.4
		C497.7,159,496.3,155.3,493.3,153.3z"/>
	
		<radialGradient id="SVGID_6_" cx="130.3211" cy="181.9286" r="313.0175" gradientTransform="matrix(1 0 0 -1 0 452)" gradientUnits="userSpaceOnUse">
		<stop  offset="0" style="stop-color:#00A7D1"/>
		<stop  offset="0.46" style="stop-color:#01608C"/>
		<stop  offset="0.48" style="stop-color:#025E88"/>
		<stop  offset="0.69" style="stop-color:#0A5064"/>
	</radialGradient>
	<path class="st6" d="M441.2,306L441.2,306l-182.1-105c-2.7-1.5-7.4-1.3-10.4,0.4L131,269.3l-3.9-1.5l1.1,5.5l0,0
		c0.2,1,0.9,1.8,1.8,2.2l183.9,106.2c2.7,1.6,7.4,1.3,10.4-0.4l118-68.1c1.2-0.6,2.1-1.6,2.5-2.9l0,0l1.1-5.4L441.2,306z"/>
	
		<radialGradient id="SVGID_7_" cx="159.114" cy="244.7577" r="280.6992" gradientTransform="matrix(1 0 0 -1 0 452)" gradientUnits="userSpaceOnUse">
		<stop  offset="0" style="stop-color:#008FB9"/>
		<stop  offset="0.57" style="stop-color:#03598C"/>
		<stop  offset="1" style="stop-color:#095C77"/>
	</radialGradient>
	<path class="st7" d="M314,376.8L128.8,269.9c-2.7-1.6-2.4-4.3,0.8-6.1l118.9-68.6c3.1-1.8,7.8-2,10.5-0.4l185.2,106.9
		c2.7,1.6,2.4,4.3-0.8,6.1l-118.8,68.6C321.4,378.1,316.7,378.3,314,376.8z"/>
	<path class="st8" d="M443.3,306.3l-118.8,68.6c-3.1,1.8-7.8,2-10.5,0.4L128.8,268.4c-0.8-0.4-1.4-1.1-1.7-1.9
		c-0.3,1.4,0.4,2.8,1.7,3.4L314,376.8c2.7,1.6,7.4,1.4,10.5-0.4l118.8-68.6c2.1-1.2,2.9-2.8,2.4-4.2
		C445.3,304.8,444.4,305.7,443.3,306.3z"/>
	<g class="st9">
		<path class="st10" d="M217.1,252.5l-6.2-3.6c-0.5-0.3-0.4-0.8,0.1-1.1l7.4-4.3c0.6-0.3,1.3-0.4,2-0.1l6.3,3.6
			c0.5,0.3,0.4,0.8-0.1,1.1l-7.4,4.3C218.5,252.8,217.8,252.8,217.1,252.5z"/>
		<path class="st10" d="M226.8,258.1l-6.2-3.6c-0.5-0.3-0.4-0.8,0.1-1.1l7.4-4.3c0.6-0.3,1.3-0.4,2-0.1l6.2,3.6
			c0.5,0.3,0.4,0.8-0.1,1.1l-7.4,4.3C228.1,258.4,227.4,258.4,226.8,258.1z"/>
		<path class="st10" d="M236.4,263.8l-6.2-3.6c-0.5-0.3-0.4-0.8,0.1-1.1l7.4-4.3c0.6-0.3,1.3-0.4,2-0.1l6.2,3.6
			c0.5,0.3,0.4,0.8-0.1,1.1l-7.4,4.3C237.8,264,237.1,264,236.4,263.8z"/>
		<path class="st10" d="M249.8,259.1l-6.3-3.6c-0.5-0.3-0.4-0.8,0.1-1.1l6.2-3.6c0.6-0.3,1.3-0.4,2-0.1l6.3,3.6
			c0.5,0.3,0.4,0.8-0.1,1.1l-6.2,3.6C251.1,259.3,250.4,259.4,249.8,259.1z"/>
		<path class="st10" d="M259.4,264.6l-6.3-3.6c-0.5-0.3-0.4-0.8,0.1-1.1l6.2-3.6c0.6-0.3,1.3-0.4,2-0.1l6.3,3.6
			c0.5,0.3,0.4,0.8-0.1,1.1l-6.2,3.6C260.8,264.9,260.1,264.9,259.4,264.6z"/>
		<path class="st10" d="M269.1,270.2l-6.3-3.6c-0.5-0.3-0.4-0.8,0.1-1.1l6.2-3.6c0.6-0.3,1.3-0.4,2-0.1l6.3,3.6
			c0.5,0.3,0.4,0.8-0.1,1.1l-6.2,3.6C270.4,270.5,269.7,270.5,269.1,270.2z"/>
		<path class="st10" d="M278.7,275.8l-6.3-3.6c-0.5-0.3-0.4-0.8,0.1-1.1l6.2-3.6c0.6-0.3,1.3-0.4,2-0.1l6.3,3.6
			c0.5,0.3,0.4,0.8-0.1,1.1l-6.2,3.6C280.1,276.1,279.4,276.1,278.7,275.8z"/>
		<path class="st10" d="M288.4,281.4l-6.3-3.6c-0.5-0.3-0.4-0.8,0.1-1.1l6.2-3.6c0.6-0.3,1.3-0.4,2-0.1l6.3,3.6
			c0.5,0.3,0.4,0.8-0.1,1.1l-6.2,3.6C289.8,281.6,289,281.7,288.4,281.4z"/>
		<path class="st10" d="M298.1,286.9l-6.3-3.6c-0.5-0.3-0.4-0.8,0.1-1.1l6.2-3.6c0.6-0.3,1.3-0.4,2-0.1l6.3,3.6
			c0.5,0.3,0.4,0.8-0.1,1.1l-6.2,3.5C299.4,287.2,298.7,287.2,298.1,286.9z"/>
		<path class="st10" d="M307.7,292.5l-6.3-3.6c-0.5-0.3-0.4-0.8,0.1-1.1l6.2-3.5c0.6-0.3,1.3-0.4,2-0.1l6.3,3.6
			c0.5,0.3,0.4,0.8-0.1,1.1l-6.2,3.6C309.1,292.8,308.3,292.8,307.7,292.5z"/>
		<path class="st10" d="M317.4,298.1l-6.3-3.6c-0.5-0.3-0.4-0.8,0.1-1.1l6.2-3.6c0.6-0.3,1.3-0.4,2-0.1l6.3,3.6
			c0.5,0.3,0.4,0.8-0.1,1.1l-6.2,3.6C318.7,298.4,318,298.4,317.4,298.1z"/>
		<path class="st10" d="M327,303.7l-6.3-3.6c-0.5-0.3-0.4-0.8,0.1-1.1l6.2-3.6c0.6-0.3,1.3-0.4,2-0.1l6.3,3.6
			c0.5,0.3,0.4,0.8-0.1,1.1l-6.2,3.6C328.4,303.9,327.6,303.9,327,303.7z"/>
		<path class="st10" d="M336.7,309.2l-6.2-3.6c-0.5-0.3-0.4-0.8,0.1-1.1l6.2-3.6c0.6-0.3,1.3-0.4,2-0.1l6.3,3.6
			c0.5,0.3,0.4,0.8-0.1,1.1l-6.2,3.6C338.1,309.5,337.3,309.5,336.7,309.2z"/>
		<path class="st10" d="M264,256.4l-6.2-3.6c-0.5-0.3-0.4-0.8,0.1-1.1l6.2-3.6c0.6-0.3,1.3-0.4,1.9-0.1l6.3,3.6
			c0.5,0.3,0.4,0.8-0.1,1.1l-6.2,3.6C265.4,256.7,264.6,256.7,264,256.4z"/>
		<path class="st10" d="M254.2,250.8l-6.3-3.6c-0.5-0.3-0.4-0.8,0.1-1.1l6.2-3.6c0.6-0.3,1.3-0.4,2-0.1l6.3,3.6
			c0.5,0.3,0.4,0.8-0.1,1.1l-6.2,3.6C255.5,251,254.8,251.1,254.2,250.8z"/>
		<path class="st10" d="M244.4,245.1l-13.5-7.8c-0.5-0.3-0.4-0.8,0.1-1.1l6.2-3.6c0.6-0.3,1.3-0.4,2-0.1l13.5,7.8
			c0.5,0.3,0.4,0.8-0.1,1.1l-6.2,3.6C245.7,245.4,245,245.4,244.4,245.1z"/>
		<path class="st10" d="M251.3,238.2l-10.9-6.3c-0.5-0.3-0.4-0.8,0.1-1.1l6.2-3.6c0.6-0.3,1.3-0.4,2-0.1l10.9,6.3
			c0.5,0.3,0.4,0.8-0.1,1.1l-6.2,3.5C252.6,238.5,251.9,238.5,251.3,238.2z"/>
		<path class="st10" d="M273.7,262l-6.2-3.6c-0.5-0.3-0.4-0.8,0.1-1.1l6.2-3.6c0.6-0.3,1.3-0.4,1.9-0.1l6.3,3.6
			c0.5,0.3,0.4,0.8-0.1,1.1l-6.2,3.6C275,262.3,274.3,262.3,273.7,262z"/>
		<path class="st10" d="M283.3,267.6l-6.2-3.6c-0.5-0.3-0.4-0.8,0.1-1.1l6.2-3.6c0.6-0.3,1.3-0.4,1.9-0.1l6.3,3.6
			c0.5,0.3,0.4,0.8-0.1,1.1l-6.2,3.6C284.7,267.9,283.9,267.9,283.3,267.6z"/>
		<path class="st10" d="M293,273.2l-6.2-3.6c-0.5-0.3-0.4-0.8,0.1-1.1l6.2-3.6c0.6-0.3,1.3-0.4,2-0.1l6.2,3.6
			c0.5,0.3,0.4,0.8-0.1,1.1l-6.2,3.6C294.3,273.4,293.6,273.4,293,273.2z"/>
		<path class="st10" d="M302.6,278.7l-6.2-3.6c-0.5-0.3-0.4-0.8,0.1-1.1l6.2-3.6c0.6-0.3,1.3-0.4,2-0.1l6.2,3.6
			c0.5,0.3,0.4,0.8-0.1,1.1l-6.2,3.6C304,279,303.2,279,302.6,278.7z"/>
		<path class="st10" d="M312.3,284.3l-6.2-3.6c-0.5-0.3-0.4-0.8,0.1-1.1l6.2-3.6c0.6-0.3,1.3-0.4,2-0.1l6.2,3.6
			c0.5,0.3,0.4,0.8-0.1,1.1l-6.2,3.7C313.6,284.6,312.9,284.6,312.3,284.3z"/>
		<path class="st10" d="M321.9,289.9l-6.2-3.6c-0.5-0.3-0.4-0.8,0.1-1.1l6.2-3.6c0.6-0.3,1.3-0.4,2-0.1l6.2,3.6
			c0.5,0.3,0.4,0.8-0.1,1.1l-6.2,3.6C323.3,290.1,322.6,290.2,321.9,289.9z"/>
		<path class="st10" d="M331.6,295.5l-6.2-3.6c-0.5-0.3-0.4-0.8,0.1-1.1l6.2-3.6c0.6-0.3,1.3-0.4,2-0.1l6.2,3.6
			c0.5,0.3,0.4,0.8-0.1,1.1l-6.2,3.6C332.9,295.7,332.2,295.7,331.6,295.5z"/>
		<path class="st10" d="M341.2,301l-6.2-3.6c-0.5-0.3-0.4-0.8,0.1-1.1l6.2-3.6c0.6-0.3,1.3-0.4,2-0.1l6.2,3.6
			c0.5,0.3,0.4,0.8-0.1,1.1l-6.2,3.6C342.6,301.3,341.9,301.3,341.2,301z"/>
		<path class="st10" d="M350.9,306.6l-6.2-3.6c-0.5-0.3-0.4-0.8,0.1-1.1l6.2-3.6c0.6-0.3,1.3-0.4,2-0.1l6.2,3.6
			c0.5,0.3,0.4,0.8-0.1,1.1l-6.2,3.6C352.2,306.9,351.5,306.9,350.9,306.6z"/>
		<path class="st10" d="M368,316.5l-13.6-7.9c-0.5-0.3-0.4-0.8,0.1-1.1l6.2-3.6c0.6-0.3,1.3-0.4,2-0.1l13.6,7.9
			c0.5,0.3,0.4,0.8-0.1,1.1l-6.2,3.6C369.4,316.8,368.7,316.8,368,316.5z"/>
		<path class="st10" d="M386.9,305.7l-11.5-6.6c-0.5-0.3-0.4-0.8,0.1-1.1l6.2-3.6c0.6-0.3,1.3-0.4,2-0.1l11.5,6.7
			c0.5,0.3,0.4,0.8-0.1,1.1l-6.2,3.6C388.2,305.9,387.5,305.9,386.9,305.7z"/>
		<path class="st10" d="M290.6,260.9l-6.2-3.6c-0.5-0.3-0.4-0.8,0.1-1.1l6.2-3.6c0.6-0.3,1.3-0.4,2-0.1l6.3,3.6
			c0.5,0.3,0.4,0.8-0.1,1.1l-6.2,3.6C291.9,261.2,291.2,261.2,290.6,260.9z"/>
		<path class="st10" d="M280.7,255.2l-6.2-3.6c-0.5-0.3-0.4-0.8,0.1-1.1l6.2-3.6c0.6-0.3,1.3-0.4,1.9-0.1l6.3,3.6
			c0.5,0.3,0.4,0.8-0.1,1.1l-6.2,3.6C282,255.5,281.3,255.5,280.7,255.2z"/>
		<path class="st10" d="M270.8,249.5l-6.2-3.6c-0.5-0.3-0.4-0.8,0.1-1.1l6.2-3.6c0.6-0.3,1.3-0.4,2-0.1l6.2,3.6
			c0.5,0.3,0.4,0.8-0.1,1.1l-6.1,3.6C272.2,249.8,271.4,249.8,270.8,249.5z"/>
		<path class="st10" d="M260.9,243.8l-6.3-3.6c-0.5-0.3-0.4-0.8,0.1-1.1l6.2-3.6c0.6-0.3,1.3-0.4,2-0.1l6.3,3.6
			c0.5,0.3,0.4,0.8-0.1,1.1l-6.2,3.6C262.2,244,261.5,244.1,260.9,243.8z"/>
		<path class="st10" d="M300.2,266.5l-6.3-3.6c-0.5-0.3-0.4-0.8,0.1-1.1l6.2-3.6c0.6-0.3,1.3-0.4,2-0.1l6.3,3.6
			c0.5,0.3,0.4,0.8-0.1,1.1l-6.2,3.6C301.6,266.8,300.8,266.8,300.2,266.5z"/>
		<path class="st10" d="M309.9,272.1l-6.3-3.6c-0.5-0.3-0.4-0.8,0.1-1.1l6.2-3.6c0.6-0.3,1.3-0.4,2-0.1l6.3,3.6
			c0.5,0.3,0.4,0.8-0.1,1.1l-6.2,3.6C311.2,272.3,310.5,272.4,309.9,272.1z"/>
		<path class="st10" d="M319.5,277.6l-6.3-3.6c-0.5-0.3-0.4-0.8,0.1-1.1l6.2-3.6c0.6-0.3,1.3-0.4,1.9-0.1l6.3,3.6
			c0.5,0.3,0.4,0.8-0.1,1.1l-6.2,3.6C320.9,277.9,320.2,277.9,319.5,277.6z"/>
		<path class="st10" d="M329.2,283.2l-6.3-3.6c-0.5-0.3-0.4-0.8,0.1-1.1l6.2-3.6c0.6-0.3,1.3-0.4,1.9-0.1l6.3,3.6
			c0.5,0.3,0.4,0.8-0.1,1.1l-6.2,3.6C330.5,283.5,329.8,283.5,329.2,283.2z"/>
		<path class="st10" d="M338.8,288.8l-6.3-3.6c-0.5-0.3-0.4-0.8,0.1-1.1l6.2-3.6c0.6-0.3,1.3-0.4,1.9-0.1l6.3,3.6
			c0.5,0.3,0.4,0.8-0.1,1.1l-6.2,3.6C340.2,289.1,339.5,289.1,338.8,288.8z"/>
		<path class="st10" d="M348.5,294.4l-6.3-3.6c-0.5-0.3-0.4-0.8,0.1-1.1l6.2-3.6c0.6-0.3,1.3-0.4,1.9-0.1l6.3,3.6
			c0.5,0.3,0.4,0.8-0.1,1.1l-6.2,3.6C349.8,294.6,349.1,294.7,348.5,294.4z"/>
		<path class="st10" d="M358.1,299.9l-6.3-3.6c-0.5-0.3-0.4-0.8,0.1-1.1l6.2-3.6c0.6-0.3,1.3-0.4,1.9-0.1l6.3,3.6
			c0.5,0.3,0.4,0.8-0.1,1.1l-6.2,3.6C359.5,300.2,358.8,300.2,358.1,299.9z"/>
		<path class="st10" d="M367.8,305.5l-6.2-3.6c-0.5-0.3-0.4-0.8,0.1-1.1l6.2-3.6c0.6-0.3,1.3-0.4,1.9-0.1l6.3,3.6
			c0.5,0.3,0.4,0.8-0.1,1.1l-6.2,3.6C369.1,305.8,368.4,305.8,367.8,305.5z"/>
		<path class="st10" d="M377.4,311.1l-6.2-3.6c-0.5-0.3-0.4-0.8,0.1-1.1l6.2-3.6c0.6-0.3,1.3-0.4,1.9-0.1l6.3,3.6
			c0.5,0.3,0.4,0.8-0.1,1.1l-6.2,3.6C378.8,311.3,378.1,311.4,377.4,311.1z"/>
		<path class="st10" d="M285.5,247.1l-6.3-3.6c-0.5-0.3-0.4-0.8,0.1-1.1l6.2-3.6c0.6-0.3,1.3-0.4,2-0.1l6.2,3.6
			c0.5,0.3,0.4,0.8-0.1,1.1l-6.2,3.6C286.8,247.4,286.1,247.4,285.5,247.1z"/>
		<path class="st10" d="M275.9,241.6l-6.2-3.6c-0.5-0.3-0.4-0.8,0.1-1.1l6.2-3.6c0.6-0.3,1.3-0.4,1.9-0.1l6.3,3.6
			c0.5,0.3,0.4,0.8-0.1,1.1l-6.2,3.6C277.2,241.8,276.5,241.9,275.9,241.6z"/>
		<path class="st10" d="M266.3,236l-6.3-3.6c-0.5-0.3-0.4-0.8,0.1-1.1l6.3-3.6c0.6-0.3,1.3-0.4,2-0.1l6.3,3.6
			c0.5,0.3,0.4,0.8-0.1,1.1l-6.2,3.6C267.6,236.3,266.9,236.3,266.3,236z"/>
		<path class="st10" d="M256.7,230.5l-6.3-3.6c-0.5-0.3-0.4-0.8,0.1-1.1l6.2-3.6c0.6-0.3,1.3-0.4,2-0.1l6.2,3.6
			c0.5,0.3,0.4,0.8-0.1,1.1l-6.1,3.6C258.1,230.8,257.3,230.8,256.7,230.5z"/>
		<path class="st10" d="M266.5,224.8l-6.3-3.6c-0.5-0.3-0.4-0.8,0.1-1.1l2.1-1.2c0.6-0.3,1.3-0.4,2-0.1l6.2,3.6
			c0.5,0.3,0.4,0.8-0.1,1.1l-2.1,1.2C267.9,225.1,267.2,225.1,266.5,224.8z"/>
		<path class="st10" d="M279.1,232l-6.3-3.6c-0.5-0.3-0.4-0.8,0.1-1.1l2.1-1.2c0.6-0.3,1.3-0.4,2-0.1l6.2,3.6
			c0.5,0.3,0.4,0.8-0.1,1.1l-2,1.2C280.4,232.3,279.7,232.3,279.1,232z"/>
		<path class="st10" d="M288.6,237.6l-6.3-3.6c-0.5-0.3-0.4-0.8,0.1-1.1l2.1-1.2c0.6-0.3,1.3-0.4,2-0.1l6.2,3.6
			c0.5,0.3,0.4,0.8-0.1,1.1l-2.1,1.2C290,237.8,289.3,237.8,288.6,237.6z"/>
		<path class="st10" d="M298.2,243.1l-6.2-3.6c-0.5-0.3-0.4-0.8,0.1-1.1l2-1.2c0.6-0.3,1.3-0.4,2-0.1l6.3,3.6
			c0.5,0.3,0.4,0.8-0.1,1.1l-2.1,1.2C299.6,243.3,298.9,243.4,298.2,243.1z"/>
		<path class="st10" d="M307.8,248.6l-6.2-3.6c-0.5-0.3-0.4-0.8,0.1-1.1l2-1.2c0.6-0.3,1.3-0.4,2-0.1l6.3,3.6
			c0.5,0.3,0.4,0.8-0.1,1.1l-2.1,1.2C309.1,248.9,308.4,248.9,307.8,248.6z"/>
		<path class="st10" d="M361.2,279.4l-6.3-3.6c-0.5-0.3-0.4-0.8,0.1-1.1l2.1-1.2c0.6-0.3,1.3-0.4,2-0.1l6.2,3.6
			c0.5,0.3,0.4,0.8-0.1,1.1l-2,1.2C362.6,279.7,361.9,279.7,361.2,279.4z"/>
		<path class="st10" d="M370.7,285l-6.2-3.6c-0.5-0.3-0.4-0.8,0.1-1.1l2-1.2c0.6-0.3,1.3-0.4,2-0.1l6.3,3.6c0.5,0.3,0.4,0.8-0.1,1.1
			l-2.1,1.2C372.1,285.2,371.4,285.2,370.7,285z"/>
		<path class="st10" d="M380.3,290.5l-6.2-3.7c-0.5-0.3-0.4-0.8,0.1-1.1l2-1.2c0.6-0.3,1.3-0.4,2-0.1l6.3,3.6
			c0.5,0.3,0.4,0.8-0.1,1.1l-2.1,1.2C381.7,290.7,380.9,290.8,380.3,290.5z"/>
		<path class="st10" d="M389.9,296l-6.3-3.6c-0.5-0.3-0.4-0.8,0.1-1.1l2.1-1.2c0.6-0.3,1.3-0.4,1.9-0.1l6.3,3.6
			c0.5,0.3,0.4,0.8-0.1,1.1l-2.1,1.2C391.2,296.3,390.5,296.3,389.9,296z"/>
		<path class="st10" d="M295.1,252.7l-6.2-3.6c-0.5-0.3-0.4-0.8,0.1-1.1l6.2-3.6c0.6-0.3,1.3-0.4,2-0.1l6.2,3.6
			c0.5,0.3,0.4,0.8-0.1,1.1l-6.1,3.6C296.5,253,295.8,253,295.1,252.7z"/>
		<path class="st10" d="M304.8,258.3l-6.2-3.6c-0.5-0.3-0.4-0.8,0.1-1.1l6.2-3.6c0.6-0.3,1.3-0.4,2-0.1l6.2,3.6
			c0.5,0.3,0.4,0.8-0.1,1.1l-6.2,3.6C306.2,258.5,305.5,258.6,304.8,258.3z"/>
		<path class="st10" d="M314.4,263.9l-6.2-3.6c-0.5-0.3-0.4-0.8,0.1-1.1l6.2-3.6c0.6-0.3,1.3-0.4,2-0.1l6.2,3.6
			c0.5,0.3,0.4,0.8-0.1,1.1l-6.2,3.6C315.8,264.1,315.1,264.1,314.4,263.9z"/>
		<path class="st10" d="M324.1,269.4l-6.3-3.6c-0.5-0.3-0.4-0.8,0.1-1.1l6.2-3.6c0.6-0.3,1.3-0.4,2-0.1l6.2,3.6
			c0.5,0.3,0.4,0.8-0.1,1.1l-6.2,3.6C325.4,269.7,324.7,269.7,324.1,269.4z"/>
		<path class="st10" d="M333.8,275l-6.3-3.6c-0.5-0.3-0.4-0.8,0.1-1.1l6.2-3.6c0.6-0.3,1.3-0.4,2-0.1l6.2,3.5
			c0.5,0.3,0.4,0.8-0.1,1.1l-6.2,3.6C335.1,275.2,334.4,275.3,333.8,275z"/>
		<path class="st10" d="M343.4,280.6l-6.3-3.6c-0.5-0.3-0.4-0.8,0.1-1.1l6.2-3.6c0.6-0.3,1.3-0.4,2-0.1l6.2,3.6
			c0.5,0.3,0.4,0.8-0.1,1.1l-6.2,3.6C344.8,280.8,344,280.9,343.4,280.6z"/>
		<path class="st10" d="M353.1,286.1l-6.3-3.6c-0.5-0.3-0.4-0.8,0.1-1.1l6.2-3.6c0.6-0.3,1.3-0.4,2-0.1l6.2,3.6
			c0.5,0.3,0.4,0.8-0.1,1.1l-6.2,3.6C354.4,286.4,353.7,286.4,353.1,286.1z"/>
		<path class="st10" d="M362.7,291.7l-6.3-3.6c-0.5-0.3-0.4-0.8,0.1-1.1l6.2-3.6c0.6-0.3,1.3-0.4,2-0.1l6.2,3.6
			c0.5,0.3,0.4,0.8-0.1,1.1l-6.2,3.6C364.1,292,363.3,292,362.7,291.7z"/>
		<path class="st10" d="M372.4,297.3l-6.3-3.6c-0.5-0.3-0.4-0.8,0.1-1.1l6.2-3.6c0.6-0.3,1.3-0.4,2-0.1l6.3,3.6
			c0.5,0.3,0.4,0.8-0.1,1.1l-6.2,3.6C373.7,297.6,373,297.6,372.4,297.3z"/>
		<path class="st10" d="M239.9,253.4l-18.4-10.6c-0.5-0.3-0.4-0.8,0.1-1.1l6.3-3.5c0.6-0.3,1.3-0.4,2-0.1l18.4,10.6
			c0.5,0.3,0.4,0.8-0.1,1.1l-6.2,3.6C241.3,253.7,240.6,253.7,239.9,253.4z"/>
		<path class="st10" d="M358.5,321.9l-18.4-10.6c-0.5-0.3-0.4-0.8,0.1-1.1l6.2-3.6c0.6-0.3,1.3-0.4,2-0.1l18.4,10.6
			c0.5,0.3,0.4,0.8-0.1,1.1l-6.2,3.6C359.9,322.1,359.2,322.2,358.5,321.9z"/>
		<path class="st10" d="M319.9,311.9l-6.3-3.6c-0.5-0.3-0.4-0.8,0.1-1.1l7.4-4.3c0.6-0.3,1.3-0.4,2-0.1l6.2,3.6
			c0.5,0.3,0.4,0.8-0.1,1.1l-7.4,4.3C321.3,312.1,320.6,312.2,319.9,311.9z"/>
		<path class="st10" d="M249.8,271.4l-10-5.8c-0.5-0.3-0.4-0.8,0.1-1.1l7.4-4.3c0.6-0.3,1.3-0.4,2-0.1l10,5.8
			c0.5,0.3,0.4,0.8-0.1,1.1l-7.4,4.3C251.2,271.7,250.5,271.7,249.8,271.4z"/>
		<path class="st10" d="M310.6,306.5l-10-5.8c-0.5-0.3-0.4-0.8,0.1-1.1l7.4-4.3c0.6-0.3,1.3-0.4,2-0.1l10,5.8
			c0.5,0.3,0.4,0.8-0.1,1.1l-7.4,4.3C312,306.8,311.3,306.8,310.6,306.5z"/>
		<path class="st10" d="M263.8,279.5l-10-5.8c-0.5-0.3-0.4-0.8,0.1-1.1l7.4-4.3c0.6-0.3,1.3-0.4,1.9-0.1l10,5.8
			c0.5,0.3,0.4,0.8-0.1,1.1l-7.4,4.3C265.2,279.7,264.4,279.7,263.8,279.5z"/>
		<path class="st10" d="M263.3,268.3l43.5,25.1c0.3,0.1,0.5,0.4,0.4,0.7c-0.1,0.2-0.2,0.3-0.4,0.4l-7.5,4.3c-0.6,0.3-1.3,0.3-1.9,0
			l-43.5-25.1L263.3,268.3z"/>
		<path class="st10" d="M346.9,322l7,4c0.4,0.2,0.4,0.7-0.1,0.9l-3,1.7c-0.5,0.3-1.1,0.3-1.6,0.1l-7-4c-0.4-0.2-0.4-0.7,0.1-0.9
			l3-1.7C345.8,321.8,346.4,321.8,346.9,322z"/>
		<path class="st10" d="M337.2,316.4l7,4c0.4,0.2,0.4,0.7-0.1,0.9l-3,1.7c-0.5,0.3-1.1,0.3-1.6,0.1l-7-4c-0.4-0.2-0.4-0.7,0.1-0.9
			l3-1.7C336.1,316.2,336.7,316.2,337.2,316.4z"/>
		<path class="st10" d="M327.5,310.8l7,4c0.4,0.2,0.4,0.7-0.1,0.9l-3,1.7c-0.5,0.3-1.1,0.3-1.6,0.1l-7-4c-0.4-0.2-0.4-0.7,0.1-0.9
			l3-1.7C326.4,310.6,327,310.6,327.5,310.8z"/>
		<path class="st10" d="M342.5,313.3l7,4c0.4,0.2,0.4,0.7-0.1,0.9l-3,1.7c-0.5,0.3-1.1,0.3-1.6,0.1l-7-4c-0.4-0.2-0.4-0.7,0.1-0.9
			l3-1.7C341.4,313.1,342,313.1,342.5,313.3z"/>
	</g>
	<g class="st9">
		<path class="st10" d="M217.1,252.5l-6.2-3.6c-0.5-0.3-0.4-0.8,0.1-1.1l7.4-4.3c0.6-0.3,1.3-0.4,2-0.1l6.3,3.6
			c0.5,0.3,0.4,0.8-0.1,1.1l-7.4,4.3C218.5,252.8,217.8,252.8,217.1,252.5z"/>
		<path class="st10" d="M226.8,258.1l-6.2-3.6c-0.5-0.3-0.4-0.8,0.1-1.1l7.4-4.3c0.6-0.3,1.3-0.4,2-0.1l6.2,3.6
			c0.5,0.3,0.4,0.8-0.1,1.1l-7.4,4.3C228.1,258.4,227.4,258.4,226.8,258.1z"/>
		<path class="st10" d="M236.4,263.8l-6.2-3.6c-0.5-0.3-0.4-0.8,0.1-1.1l7.4-4.3c0.6-0.3,1.3-0.4,2-0.1l6.2,3.6
			c0.5,0.3,0.4,0.8-0.1,1.1l-7.4,4.3C237.8,264,237.1,264,236.4,263.8z"/>
		<path class="st10" d="M249.8,259.1l-6.3-3.6c-0.5-0.3-0.4-0.8,0.1-1.1l6.2-3.6c0.6-0.3,1.3-0.4,2-0.1l6.3,3.6
			c0.5,0.3,0.4,0.8-0.1,1.1l-6.2,3.6C251.1,259.3,250.4,259.4,249.8,259.1z"/>
		<path class="st10" d="M259.4,264.6l-6.3-3.6c-0.5-0.3-0.4-0.8,0.1-1.1l6.2-3.6c0.6-0.3,1.3-0.4,2-0.1l6.3,3.6
			c0.5,0.3,0.4,0.8-0.1,1.1l-6.2,3.6C260.8,264.9,260.1,264.9,259.4,264.6z"/>
		<path class="st10" d="M269.1,270.2l-6.3-3.6c-0.5-0.3-0.4-0.8,0.1-1.1l6.2-3.6c0.6-0.3,1.3-0.4,2-0.1l6.3,3.6
			c0.5,0.3,0.4,0.8-0.1,1.1l-6.2,3.6C270.4,270.5,269.7,270.5,269.1,270.2z"/>
		<path class="st10" d="M278.7,275.8l-6.3-3.6c-0.5-0.3-0.4-0.8,0.1-1.1l6.2-3.6c0.6-0.3,1.3-0.4,2-0.1l6.3,3.6
			c0.5,0.3,0.4,0.8-0.1,1.1l-6.2,3.6C280.1,276.1,279.4,276.1,278.7,275.8z"/>
		<path class="st10" d="M288.4,281.4l-6.3-3.6c-0.5-0.3-0.4-0.8,0.1-1.1l6.2-3.6c0.6-0.3,1.3-0.4,2-0.1l6.3,3.6
			c0.5,0.3,0.4,0.8-0.1,1.1l-6.2,3.6C289.8,281.6,289,281.7,288.4,281.4z"/>
		<path class="st10" d="M298.1,286.9l-6.3-3.6c-0.5-0.3-0.4-0.8,0.1-1.1l6.2-3.6c0.6-0.3,1.3-0.4,2-0.1l6.3,3.6
			c0.5,0.3,0.4,0.8-0.1,1.1l-6.2,3.5C299.4,287.2,298.7,287.2,298.1,286.9z"/>
		<path class="st10" d="M307.7,292.5l-6.3-3.6c-0.5-0.3-0.4-0.8,0.1-1.1l6.2-3.5c0.6-0.3,1.3-0.4,2-0.1l6.3,3.6
			c0.5,0.3,0.4,0.8-0.1,1.1l-6.2,3.6C309.1,292.8,308.3,292.8,307.7,292.5z"/>
		<path class="st10" d="M317.4,298.1l-6.3-3.6c-0.5-0.3-0.4-0.8,0.1-1.1l6.2-3.6c0.6-0.3,1.3-0.4,2-0.1l6.3,3.6
			c0.5,0.3,0.4,0.8-0.1,1.1l-6.2,3.6C318.7,298.4,318,298.4,317.4,298.1z"/>
		<path class="st10" d="M327,303.7l-6.3-3.6c-0.5-0.3-0.4-0.8,0.1-1.1l6.2-3.6c0.6-0.3,1.3-0.4,2-0.1l6.3,3.6
			c0.5,0.3,0.4,0.8-0.1,1.1l-6.2,3.6C328.4,303.9,327.6,303.9,327,303.7z"/>
		<path class="st10" d="M336.7,309.2l-6.2-3.6c-0.5-0.3-0.4-0.8,0.1-1.1l6.2-3.6c0.6-0.3,1.3-0.4,2-0.1l6.3,3.6
			c0.5,0.3,0.4,0.8-0.1,1.1l-6.2,3.6C338.1,309.5,337.3,309.5,336.7,309.2z"/>
		<path class="st10" d="M264,256.4l-6.2-3.6c-0.5-0.3-0.4-0.8,0.1-1.1l6.2-3.6c0.6-0.3,1.3-0.4,1.9-0.1l6.3,3.6
			c0.5,0.3,0.4,0.8-0.1,1.1l-6.2,3.6C265.4,256.7,264.6,256.7,264,256.4z"/>
		<path class="st10" d="M254.2,250.8l-6.3-3.6c-0.5-0.3-0.4-0.8,0.1-1.1l6.2-3.6c0.6-0.3,1.3-0.4,2-0.1l6.3,3.6
			c0.5,0.3,0.4,0.8-0.1,1.1l-6.2,3.6C255.5,251,254.8,251.1,254.2,250.8z"/>
		<path class="st10" d="M244.4,245.1l-13.5-7.8c-0.5-0.3-0.4-0.8,0.1-1.1l6.2-3.6c0.6-0.3,1.3-0.4,2-0.1l13.5,7.8
			c0.5,0.3,0.4,0.8-0.1,1.1l-6.2,3.6C245.7,245.4,245,245.4,244.4,245.1z"/>
		<path class="st10" d="M251.3,238.2l-10.9-6.3c-0.5-0.3-0.4-0.8,0.1-1.1l6.2-3.6c0.6-0.3,1.3-0.4,2-0.1l10.9,6.3
			c0.5,0.3,0.4,0.8-0.1,1.1l-6.2,3.5C252.6,238.5,251.9,238.5,251.3,238.2z"/>
		<path class="st10" d="M273.7,262l-6.2-3.6c-0.5-0.3-0.4-0.8,0.1-1.1l6.2-3.6c0.6-0.3,1.3-0.4,1.9-0.1l6.3,3.6
			c0.5,0.3,0.4,0.8-0.1,1.1l-6.2,3.6C275,262.3,274.3,262.3,273.7,262z"/>
		<path class="st10" d="M283.3,267.6l-6.2-3.6c-0.5-0.3-0.4-0.8,0.1-1.1l6.2-3.6c0.6-0.3,1.3-0.4,1.9-0.1l6.3,3.6
			c0.5,0.3,0.4,0.8-0.1,1.1l-6.2,3.6C284.7,267.9,283.9,267.9,283.3,267.6z"/>
		<path class="st10" d="M293,273.2l-6.2-3.6c-0.5-0.3-0.4-0.8,0.1-1.1l6.2-3.6c0.6-0.3,1.3-0.4,2-0.1l6.2,3.6
			c0.5,0.3,0.4,0.8-0.1,1.1l-6.2,3.6C294.3,273.4,293.6,273.4,293,273.2z"/>
		<path class="st10" d="M302.6,278.7l-6.2-3.6c-0.5-0.3-0.4-0.8,0.1-1.1l6.2-3.6c0.6-0.3,1.3-0.4,2-0.1l6.2,3.6
			c0.5,0.3,0.4,0.8-0.1,1.1l-6.2,3.6C304,279,303.2,279,302.6,278.7z"/>
		<path class="st10" d="M312.3,284.3l-6.2-3.6c-0.5-0.3-0.4-0.8,0.1-1.1l6.2-3.6c0.6-0.3,1.3-0.4,2-0.1l6.2,3.6
			c0.5,0.3,0.4,0.8-0.1,1.1l-6.2,3.7C313.6,284.6,312.9,284.6,312.3,284.3z"/>
		<path class="st10" d="M321.9,289.9l-6.2-3.6c-0.5-0.3-0.4-0.8,0.1-1.1l6.2-3.6c0.6-0.3,1.3-0.4,2-0.1l6.2,3.6
			c0.5,0.3,0.4,0.8-0.1,1.1l-6.2,3.6C323.3,290.1,322.6,290.2,321.9,289.9z"/>
		<path class="st10" d="M331.6,295.5l-6.2-3.6c-0.5-0.3-0.4-0.8,0.1-1.1l6.2-3.6c0.6-0.3,1.3-0.4,2-0.1l6.2,3.6
			c0.5,0.3,0.4,0.8-0.1,1.1l-6.2,3.6C332.9,295.7,332.2,295.7,331.6,295.5z"/>
		<path class="st10" d="M341.2,301l-6.2-3.6c-0.5-0.3-0.4-0.8,0.1-1.1l6.2-3.6c0.6-0.3,1.3-0.4,2-0.1l6.2,3.6
			c0.5,0.3,0.4,0.8-0.1,1.1l-6.2,3.6C342.6,301.3,341.9,301.3,341.2,301z"/>
		<path class="st10" d="M350.9,306.6l-6.2-3.6c-0.5-0.3-0.4-0.8,0.1-1.1l6.2-3.6c0.6-0.3,1.3-0.4,2-0.1l6.2,3.6
			c0.5,0.3,0.4,0.8-0.1,1.1l-6.2,3.6C352.2,306.9,351.5,306.9,350.9,306.6z"/>
		<path class="st10" d="M368,316.5l-13.6-7.9c-0.5-0.3-0.4-0.8,0.1-1.1l6.2-3.6c0.6-0.3,1.3-0.4,2-0.1l13.6,7.9
			c0.5,0.3,0.4,0.8-0.1,1.1l-6.2,3.6C369.4,316.8,368.7,316.8,368,316.5z"/>
		<path class="st10" d="M386.9,305.7l-11.5-6.6c-0.5-0.3-0.4-0.8,0.1-1.1l6.2-3.6c0.6-0.3,1.3-0.4,2-0.1l11.5,6.7
			c0.5,0.3,0.4,0.8-0.1,1.1l-6.2,3.6C388.2,305.9,387.5,305.9,386.9,305.7z"/>
		<path class="st10" d="M290.6,260.9l-6.2-3.6c-0.5-0.3-0.4-0.8,0.1-1.1l6.2-3.6c0.6-0.3,1.3-0.4,2-0.1l6.3,3.6
			c0.5,0.3,0.4,0.8-0.1,1.1l-6.2,3.6C291.9,261.2,291.2,261.2,290.6,260.9z"/>
		<path class="st10" d="M280.7,255.2l-6.2-3.6c-0.5-0.3-0.4-0.8,0.1-1.1l6.2-3.6c0.6-0.3,1.3-0.4,1.9-0.1l6.3,3.6
			c0.5,0.3,0.4,0.8-0.1,1.1l-6.2,3.6C282,255.5,281.3,255.5,280.7,255.2z"/>
		<path class="st10" d="M270.8,249.5l-6.2-3.6c-0.5-0.3-0.4-0.8,0.1-1.1l6.2-3.6c0.6-0.3,1.3-0.4,2-0.1l6.2,3.6
			c0.5,0.3,0.4,0.8-0.1,1.1l-6.1,3.6C272.2,249.8,271.4,249.8,270.8,249.5z"/>
		<path class="st10" d="M260.9,243.8l-6.3-3.6c-0.5-0.3-0.4-0.8,0.1-1.1l6.2-3.6c0.6-0.3,1.3-0.4,2-0.1l6.3,3.6
			c0.5,0.3,0.4,0.8-0.1,1.1l-6.2,3.6C262.2,244,261.5,244.1,260.9,243.8z"/>
		<path class="st10" d="M300.2,266.5l-6.3-3.6c-0.5-0.3-0.4-0.8,0.1-1.1l6.2-3.6c0.6-0.3,1.3-0.4,2-0.1l6.3,3.6
			c0.5,0.3,0.4,0.8-0.1,1.1l-6.2,3.6C301.6,266.8,300.8,266.8,300.2,266.5z"/>
		<path class="st10" d="M309.9,272.1l-6.3-3.6c-0.5-0.3-0.4-0.8,0.1-1.1l6.2-3.6c0.6-0.3,1.3-0.4,2-0.1l6.3,3.6
			c0.5,0.3,0.4,0.8-0.1,1.1l-6.2,3.6C311.2,272.3,310.5,272.4,309.9,272.1z"/>
		<path class="st10" d="M319.5,277.6l-6.3-3.6c-0.5-0.3-0.4-0.8,0.1-1.1l6.2-3.6c0.6-0.3,1.3-0.4,1.9-0.1l6.3,3.6
			c0.5,0.3,0.4,0.8-0.1,1.1l-6.2,3.6C320.9,277.9,320.2,277.9,319.5,277.6z"/>
		<path class="st10" d="M329.2,283.2l-6.3-3.6c-0.5-0.3-0.4-0.8,0.1-1.1l6.2-3.6c0.6-0.3,1.3-0.4,1.9-0.1l6.3,3.6
			c0.5,0.3,0.4,0.8-0.1,1.1l-6.2,3.6C330.5,283.5,329.8,283.5,329.2,283.2z"/>
		<path class="st10" d="M338.8,288.8l-6.3-3.6c-0.5-0.3-0.4-0.8,0.1-1.1l6.2-3.6c0.6-0.3,1.3-0.4,1.9-0.1l6.3,3.6
			c0.5,0.3,0.4,0.8-0.1,1.1l-6.2,3.6C340.2,289.1,339.5,289.1,338.8,288.8z"/>
		<path class="st10" d="M348.5,294.4l-6.3-3.6c-0.5-0.3-0.4-0.8,0.1-1.1l6.2-3.6c0.6-0.3,1.3-0.4,1.9-0.1l6.3,3.6
			c0.5,0.3,0.4,0.8-0.1,1.1l-6.2,3.6C349.8,294.6,349.1,294.7,348.5,294.4z"/>
		<path class="st10" d="M358.1,299.9l-6.3-3.6c-0.5-0.3-0.4-0.8,0.1-1.1l6.2-3.6c0.6-0.3,1.3-0.4,1.9-0.1l6.3,3.6
			c0.5,0.3,0.4,0.8-0.1,1.1l-6.2,3.6C359.5,300.2,358.8,300.2,358.1,299.9z"/>
		<path class="st10" d="M367.8,305.5l-6.2-3.6c-0.5-0.3-0.4-0.8,0.1-1.1l6.2-3.6c0.6-0.3,1.3-0.4,1.9-0.1l6.3,3.6
			c0.5,0.3,0.4,0.8-0.1,1.1l-6.2,3.6C369.1,305.8,368.4,305.8,367.8,305.5z"/>
		<path class="st10" d="M377.4,311.1l-6.2-3.6c-0.5-0.3-0.4-0.8,0.1-1.1l6.2-3.6c0.6-0.3,1.3-0.4,1.9-0.1l6.3,3.6
			c0.5,0.3,0.4,0.8-0.1,1.1l-6.2,3.6C378.8,311.3,378.1,311.4,377.4,311.1z"/>
		<path class="st10" d="M285.5,247.1l-6.3-3.6c-0.5-0.3-0.4-0.8,0.1-1.1l6.2-3.6c0.6-0.3,1.3-0.4,2-0.1l6.2,3.6
			c0.5,0.3,0.4,0.8-0.1,1.1l-6.2,3.6C286.8,247.4,286.1,247.4,285.5,247.1z"/>
		<path class="st10" d="M275.9,241.6l-6.2-3.6c-0.5-0.3-0.4-0.8,0.1-1.1l6.2-3.6c0.6-0.3,1.3-0.4,1.9-0.1l6.3,3.6
			c0.5,0.3,0.4,0.8-0.1,1.1l-6.2,3.6C277.2,241.8,276.5,241.9,275.9,241.6z"/>
		<path class="st10" d="M266.3,236l-6.3-3.6c-0.5-0.3-0.4-0.8,0.1-1.1l6.3-3.6c0.6-0.3,1.3-0.4,2-0.1l6.3,3.6
			c0.5,0.3,0.4,0.8-0.1,1.1l-6.2,3.6C267.6,236.3,266.9,236.3,266.3,236z"/>
		<path class="st10" d="M256.7,230.5l-6.3-3.6c-0.5-0.3-0.4-0.8,0.1-1.1l6.2-3.6c0.6-0.3,1.3-0.4,2-0.1l6.2,3.6
			c0.5,0.3,0.4,0.8-0.1,1.1l-6.1,3.6C258.1,230.8,257.3,230.8,256.7,230.5z"/>
		<path class="st10" d="M266.5,224.8l-6.3-3.6c-0.5-0.3-0.4-0.8,0.1-1.1l2.1-1.2c0.6-0.3,1.3-0.4,2-0.1l6.2,3.6
			c0.5,0.3,0.4,0.8-0.1,1.1l-2.1,1.2C267.9,225.1,267.2,225.1,266.5,224.8z"/>
		<path class="st10" d="M279.1,232l-6.3-3.6c-0.5-0.3-0.4-0.8,0.1-1.1l2.1-1.2c0.6-0.3,1.3-0.4,2-0.1l6.2,3.6
			c0.5,0.3,0.4,0.8-0.1,1.1l-2,1.2C280.4,232.3,279.7,232.3,279.1,232z"/>
		<path class="st10" d="M288.6,237.6l-6.3-3.6c-0.5-0.3-0.4-0.8,0.1-1.1l2.1-1.2c0.6-0.3,1.3-0.4,2-0.1l6.2,3.6
			c0.5,0.3,0.4,0.8-0.1,1.1l-2.1,1.2C290,237.8,289.3,237.8,288.6,237.6z"/>
		<path class="st10" d="M298.2,243.1l-6.2-3.6c-0.5-0.3-0.4-0.8,0.1-1.1l2-1.2c0.6-0.3,1.3-0.4,2-0.1l6.3,3.6
			c0.5,0.3,0.4,0.8-0.1,1.1l-2.1,1.2C299.6,243.3,298.9,243.4,298.2,243.1z"/>
		<path class="st10" d="M307.8,248.6l-6.2-3.6c-0.5-0.3-0.4-0.8,0.1-1.1l2-1.2c0.6-0.3,1.3-0.4,2-0.1l6.3,3.6
			c0.5,0.3,0.4,0.8-0.1,1.1l-2.1,1.2C309.1,248.9,308.4,248.9,307.8,248.6z"/>
		<path class="st10" d="M361.2,279.4l-6.3-3.6c-0.5-0.3-0.4-0.8,0.1-1.1l2.1-1.2c0.6-0.3,1.3-0.4,2-0.1l6.2,3.6
			c0.5,0.3,0.4,0.8-0.1,1.1l-2,1.2C362.6,279.7,361.9,279.7,361.2,279.4z"/>
		<path class="st10" d="M370.7,285l-6.2-3.6c-0.5-0.3-0.4-0.8,0.1-1.1l2-1.2c0.6-0.3,1.3-0.4,2-0.1l6.3,3.6c0.5,0.3,0.4,0.8-0.1,1.1
			l-2.1,1.2C372.1,285.2,371.4,285.2,370.7,285z"/>
		<path class="st10" d="M380.3,290.5l-6.2-3.7c-0.5-0.3-0.4-0.8,0.1-1.1l2-1.2c0.6-0.3,1.3-0.4,2-0.1l6.3,3.6
			c0.5,0.3,0.4,0.8-0.1,1.1l-2.1,1.2C381.7,290.7,380.9,290.8,380.3,290.5z"/>
		<path class="st10" d="M389.9,296l-6.3-3.6c-0.5-0.3-0.4-0.8,0.1-1.1l2.1-1.2c0.6-0.3,1.3-0.4,1.9-0.1l6.3,3.6
			c0.5,0.3,0.4,0.8-0.1,1.1l-2.1,1.2C391.2,296.3,390.5,296.3,389.9,296z"/>
		<path class="st10" d="M295.1,252.7l-6.2-3.6c-0.5-0.3-0.4-0.8,0.1-1.1l6.2-3.6c0.6-0.3,1.3-0.4,2-0.1l6.2,3.6
			c0.5,0.3,0.4,0.8-0.1,1.1l-6.1,3.6C296.5,253,295.8,253,295.1,252.7z"/>
		<path class="st10" d="M304.8,258.3l-6.2-3.6c-0.5-0.3-0.4-0.8,0.1-1.1l6.2-3.6c0.6-0.3,1.3-0.4,2-0.1l6.2,3.6
			c0.5,0.3,0.4,0.8-0.1,1.1l-6.2,3.6C306.2,258.5,305.5,258.6,304.8,258.3z"/>
		<path class="st10" d="M314.4,263.9l-6.2-3.6c-0.5-0.3-0.4-0.8,0.1-1.1l6.2-3.6c0.6-0.3,1.3-0.4,2-0.1l6.2,3.6
			c0.5,0.3,0.4,0.8-0.1,1.1l-6.2,3.6C315.8,264.1,315.1,264.1,314.4,263.9z"/>
		<path class="st10" d="M324.1,269.4l-6.3-3.6c-0.5-0.3-0.4-0.8,0.1-1.1l6.2-3.6c0.6-0.3,1.3-0.4,2-0.1l6.2,3.6
			c0.5,0.3,0.4,0.8-0.1,1.1l-6.2,3.6C325.4,269.7,324.7,269.7,324.1,269.4z"/>
		<path class="st10" d="M333.8,275l-6.3-3.6c-0.5-0.3-0.4-0.8,0.1-1.1l6.2-3.6c0.6-0.3,1.3-0.4,2-0.1l6.2,3.5
			c0.5,0.3,0.4,0.8-0.1,1.1l-6.2,3.6C335.1,275.2,334.4,275.3,333.8,275z"/>
		<path class="st10" d="M343.4,280.6l-6.3-3.6c-0.5-0.3-0.4-0.8,0.1-1.1l6.2-3.6c0.6-0.3,1.3-0.4,2-0.1l6.2,3.6
			c0.5,0.3,0.4,0.8-0.1,1.1l-6.2,3.6C344.8,280.8,344,280.9,343.4,280.6z"/>
		<path class="st10" d="M353.1,286.1l-6.3-3.6c-0.5-0.3-0.4-0.8,0.1-1.1l6.2-3.6c0.6-0.3,1.3-0.4,2-0.1l6.2,3.6
			c0.5,0.3,0.4,0.8-0.1,1.1l-6.2,3.6C354.4,286.4,353.7,286.4,353.1,286.1z"/>
		<path class="st10" d="M362.7,291.7l-6.3-3.6c-0.5-0.3-0.4-0.8,0.1-1.1l6.2-3.6c0.6-0.3,1.3-0.4,2-0.1l6.2,3.6
			c0.5,0.3,0.4,0.8-0.1,1.1l-6.2,3.6C364.1,292,363.3,292,362.7,291.7z"/>
		<path class="st10" d="M372.4,297.3l-6.3-3.6c-0.5-0.3-0.4-0.8,0.1-1.1l6.2-3.6c0.6-0.3,1.3-0.4,2-0.1l6.3,3.6
			c0.5,0.3,0.4,0.8-0.1,1.1l-6.2,3.6C373.7,297.6,373,297.6,372.4,297.3z"/>
		<path class="st10" d="M239.9,253.4l-18.4-10.6c-0.5-0.3-0.4-0.8,0.1-1.1l6.3-3.5c0.6-0.3,1.3-0.4,2-0.1l18.4,10.6
			c0.5,0.3,0.4,0.8-0.1,1.1l-6.2,3.6C241.3,253.7,240.6,253.7,239.9,253.4z"/>
		<path class="st10" d="M358.5,321.9l-18.4-10.6c-0.5-0.3-0.4-0.8,0.1-1.1l6.2-3.6c0.6-0.3,1.3-0.4,2-0.1l18.4,10.6
			c0.5,0.3,0.4,0.8-0.1,1.1l-6.2,3.6C359.9,322.1,359.2,322.2,358.5,321.9z"/>
		<path class="st10" d="M319.9,311.9l-6.3-3.6c-0.5-0.3-0.4-0.8,0.1-1.1l7.4-4.3c0.6-0.3,1.3-0.4,2-0.1l6.2,3.6
			c0.5,0.3,0.4,0.8-0.1,1.1l-7.4,4.3C321.3,312.1,320.6,312.2,319.9,311.9z"/>
		<path class="st10" d="M249.8,271.4l-10-5.8c-0.5-0.3-0.4-0.8,0.1-1.1l7.4-4.3c0.6-0.3,1.3-0.4,2-0.1l10,5.8
			c0.5,0.3,0.4,0.8-0.1,1.1l-7.4,4.3C251.2,271.7,250.5,271.7,249.8,271.4z"/>
		<path class="st10" d="M310.6,306.5l-10-5.8c-0.5-0.3-0.4-0.8,0.1-1.1l7.4-4.3c0.6-0.3,1.3-0.4,2-0.1l10,5.8
			c0.5,0.3,0.4,0.8-0.1,1.1l-7.4,4.3C312,306.8,311.3,306.8,310.6,306.5z"/>
		<path class="st10" d="M263.8,279.5l-10-5.8c-0.5-0.3-0.4-0.8,0.1-1.1l7.4-4.3c0.6-0.3,1.3-0.4,1.9-0.1l10,5.8
			c0.5,0.3,0.4,0.8-0.1,1.1l-7.4,4.3C265.2,279.7,264.4,279.7,263.8,279.5z"/>
		<path class="st10" d="M263.3,268.3l43.5,25.1c0.3,0.1,0.5,0.4,0.4,0.7c-0.1,0.2-0.2,0.3-0.4,0.4l-7.5,4.3c-0.6,0.3-1.3,0.3-1.9,0
			l-43.5-25.1L263.3,268.3z"/>
		<path class="st10" d="M346.9,322l7,4c0.4,0.2,0.4,0.7-0.1,0.9l-3,1.7c-0.5,0.3-1.1,0.3-1.6,0.1l-7-4c-0.4-0.2-0.4-0.7,0.1-0.9
			l3-1.7C345.8,321.8,346.4,321.8,346.9,322z"/>
		<path class="st10" d="M337.2,316.4l7,4c0.4,0.2,0.4,0.7-0.1,0.9l-3,1.7c-0.5,0.3-1.1,0.3-1.6,0.1l-7-4c-0.4-0.2-0.4-0.7,0.1-0.9
			l3-1.7C336.1,316.2,336.7,316.2,337.2,316.4z"/>
		<path class="st10" d="M327.5,310.8l7,4c0.4,0.2,0.4,0.7-0.1,0.9l-3,1.7c-0.5,0.3-1.1,0.3-1.6,0.1l-7-4c-0.4-0.2-0.4-0.7,0.1-0.9
			l3-1.7C326.4,310.6,327,310.6,327.5,310.8z"/>
		<path class="st10" d="M342.5,313.3l7,4c0.4,0.2,0.4,0.7-0.1,0.9l-3,1.7c-0.5,0.3-1.1,0.3-1.6,0.1l-7-4c-0.4-0.2-0.4-0.7,0.1-0.9
			l3-1.7C341.4,313.1,342,313.1,342.5,313.3z"/>
	</g>
	
		<radialGradient id="SVGID_8_" cx="229.0452" cy="352.1095" r="286.3141" gradientTransform="matrix(1 0 0 -1 0 452)" gradientUnits="userSpaceOnUse">
		<stop  offset="5.000000e-02" style="stop-color:#035973"/>
		<stop  offset="0.87" style="stop-color:#0099B9"/>
		<stop  offset="0.98" style="stop-color:#047796"/>
	</radialGradient>
	<path class="st11" d="M444.7,302L260.2,195.6c-3-2-4.4-5.7-3.4-9.1L298.6,51c1-3.4,4.2-4.7,7.1-3.1l184.4,106.5
		c3,2,4.4,5.7,3.4,9.1L451.8,299C450.8,302.3,447.6,303.7,444.7,302z"/>
	
		<linearGradient id="SVGID_9_" gradientUnits="userSpaceOnUse" x1="260.5186" y1="276.9438" x2="489.9391" y2="276.9438" gradientTransform="matrix(1 0 0 -1 0 452)">
		<stop  offset="0" style="stop-color:#006187"/>
		<stop  offset="0.25" style="stop-color:#00648B"/>
		<stop  offset="0.52" style="stop-color:#026C99"/>
		<stop  offset="0.81" style="stop-color:#0378AF"/>
		<stop  offset="1" style="stop-color:#0584C2"/>
	</linearGradient>
	<path class="st12" d="M442.9,297.3L264.1,193.9c-2.9-1.9-4.2-5.4-3.2-8.7l39.9-129.5c0.5-2.5,2.9-4,5.4-3.5c0.5,0.1,1,0.3,1.4,0.6
		l178.9,103.4c2.9,1.9,4.2,5.4,3.2,8.7l-39.9,129.5C448.8,297.6,445.7,298.9,442.9,297.3z"/>
	<path class="st13" d="M442.9,297.3L264.1,193.9c-2.9-1.9-4.2-5.4-3.2-8.7l39.9-129.5c0.5-2.5,2.9-4,5.4-3.5c0.5,0.1,1,0.3,1.4,0.6
		l178.9,103.4c2.9,1.9,4.2,5.4,3.2,8.7l-39.9,129.5C448.8,297.6,445.7,298.9,442.9,297.3z"/>
	<path class="st14" d="M442.9,297.3L264.1,193.9c-2.9-1.9-4.2-5.4-3.2-8.7l39.9-129.5c0.5-2.5,2.9-4,5.4-3.5c0.5,0.1,1,0.3,1.4,0.6
		l178.9,103.4c2.9,1.9,4.2,5.4,3.2,8.7l-39.9,129.5C448.8,297.6,445.7,298.9,442.9,297.3z"/>
	<path class="st15" d="M433.3,257.7l-121.1-69.9c-2-1.3-2.9-3.7-2.2-6l27.4-88.9c0.4-1.7,2-2.8,3.7-2.4c0.3,0.1,0.7,0.2,1,0.4
		l121.1,69.9c2,1.3,2.9,3.7,2.2,6L438,255.7c-0.4,1.7-2,2.8-3.7,2.4C434,258,433.6,257.9,433.3,257.7z"/>
	
		<radialGradient id="SVGID_10_" cx="124.5266" cy="413.2464" r="445.9317" gradientTransform="matrix(1 0 0 -1 0 452)" gradientUnits="userSpaceOnUse">
		<stop  offset="0" style="stop-color:#03598C"/>
		<stop  offset="0.43" style="stop-color:#023845"/>
		<stop  offset="0.48" style="stop-color:#033A4E"/>
		<stop  offset="0.73" style="stop-color:#074472"/>
		<stop  offset="1" style="stop-color:#1A2441"/>
	</radialGradient>
	<path class="st16" d="M417,259.9l-121.1-70c-2-1.3-2.9-3.7-2.2-6L321,95.1c0.3-1.7,2-2.8,3.7-2.4c0.4,0.1,0.7,0.2,1,0.4L446.8,163
		c2,1.3,2.9,3.7,2.2,6l-27.4,88.9c-0.3,1.7-2,2.8-3.6,2.4C417.6,260.2,417.3,260.1,417,259.9z"/>
	<path class="st17" d="M417,259.9l-121.1-70c-2-1.3-2.9-3.7-2.2-6L321,95.1c0.3-1.7,2-2.8,3.7-2.4c0.4,0.1,0.7,0.2,1,0.4L446.8,163
		c2,1.3,2.9,3.7,2.2,6l-27.4,88.9c-0.3,1.7-2,2.8-3.6,2.4C417.6,260.2,417.3,260.1,417,259.9z"/>
	<path class="st8" d="M446.8,163L325.7,93.1c-1.1-0.7-2.4-0.6-3.4,0.1c0.6,0,1.2,0.1,1.7,0.4l121.1,69.9c2,1.3,2.9,3.7,2.2,6
		L420,258.4c-0.2,0.7-0.7,1.4-1.3,1.9c1.4-0.1,2.6-1.1,2.9-2.4L449,169C449.7,166.7,448.8,164.3,446.8,163z"/>
	<path class="st18" d="M264.2,332.5c-1.6,0-3.1-0.3-4.5-1.1l0,0l-48.5-28c-1.2-0.6-1.9-1.7-2-3c0.2-1.6,1.2-3,2.7-3.7l25-14.4
		c3.2-1.8,7-1.9,10.3-0.4l48.5,28c1.2,0.6,1.9,1.7,2,3c-0.2,1.6-1.2,3-2.7,3.7L270,331C268.2,332,266.2,332.5,264.2,332.5z
		 M242.6,282.3c-1.8,0-3.5,0.4-5,1.3l-25,14.4c-1.3,0.7-2,1.6-2,2.5c0.1,0.8,0.6,1.5,1.3,1.8l48.5,28c2.8,1.2,6.1,1.1,8.8-0.4
		l25-14.4c1.3-0.7,2-1.6,2-2.6c-0.1-0.8-0.6-1.4-1.3-1.8l-48.5-28C245.2,282.5,243.9,282.2,242.6,282.3L242.6,282.3z"/>
	<path class="st8" d="M355.2,139.7l-7.5-4.3c-0.7-0.5-1.1-1.3-0.8-2.2l0,0c0.1-0.6,0.7-1,1.3-0.8c0.1,0,0.3,0.1,0.4,0.2l7.5,4.3
		c0.7,0.5,1.1,1.3,0.8,2.2l0,0c-0.1,0.6-0.7,1-1.3,0.9C355.5,139.9,355.3,139.8,355.2,139.7z"/>
	<path class="st8" d="M373,150l-11-6.4c-0.7-0.5-1.1-1.3-0.8-2.2l0,0c0.1-0.6,0.7-1,1.3-0.9c0.1,0,0.3,0.1,0.4,0.2l11,6.4
		c0.7,0.5,1.1,1.3,0.8,2.2l0,0c-0.1,0.6-0.7,1-1.3,0.9C373.3,150.1,373.2,150.1,373,150z"/>
	<path class="st8" d="M340.1,173l-7.5-4.3c-0.7-0.5-1.1-1.3-0.8-2.2l0,0c0.1-0.6,0.7-1,1.3-0.8c0.1,0,0.3,0.1,0.4,0.2l7.5,4.3
		c0.7,0.5,1.1,1.3,0.8,2.2l0,0c-0.1,0.6-0.7,1-1.3,0.8C340.3,173.2,340.2,173.1,340.1,173z"/>
	<path class="st8" d="M356,182.2l-11-6.4c-0.7-0.5-1.1-1.3-0.8-2.2l0,0c0.1-0.6,0.7-1,1.3-0.8c0.1,0,0.3,0.1,0.4,0.2l11,6.4
		c0.7,0.5,1.1,1.3,0.8,2.2l0,0c-0.1,0.6-0.7,1-1.3,0.8C356.2,182.3,356.1,182.3,356,182.2z"/>
	<path class="st8" d="M332.8,133.8l-4.7-2.7c-0.7-0.5-1-1.3-0.8-2.2l0,0c0.1-0.6,0.7-1,1.3-0.9c0.1,0,0.3,0.1,0.4,0.2l4.7,2.7
		c0.7,0.5,1.1,1.3,0.8,2.2l0,0c-0.1,0.6-0.7,1-1.3,0.8C333,133.9,332.9,133.8,332.8,133.8z"/>
	<path class="st8" d="M346.9,148.9l-14.3-8.2c-0.7-0.5-1.1-1.3-0.8-2.2l0,0c0.1-0.6,0.7-1,1.3-0.8c0.1,0,0.2,0.1,0.4,0.2l14.3,8.2
		c0.7,0.5,1.1,1.3,0.8,2.2l0,0c-0.2,0.6-0.8,1-1.4,0.8C347.1,149,347,149,346.9,148.9z"/>
	<path class="st8" d="M333.7,155.3l-4.7-2.7c-0.7-0.5-1-1.3-0.8-2.2l0,0c0.1-0.6,0.7-1,1.3-0.9c0.1,0,0.3,0.1,0.4,0.2l4.7,2.7
		c0.7,0.5,1.1,1.3,0.8,2.2l0,0c-0.1,0.6-0.7,1-1.3,0.8C333.9,155.4,333.8,155.4,333.7,155.3z"/>
	<path class="st8" d="M357.7,197.2l-12.5-7.2c-0.7-0.5-1.1-1.3-0.8-2.2l0,0c0.1-0.6,0.7-1,1.3-0.9c0.1,0,0.3,0.1,0.4,0.2l12.5,7.2
		c0.7,0.5,1.1,1.3,0.8,2.2l0,0c-0.1,0.6-0.7,1-1.3,0.8C358,197.3,357.8,197.3,357.7,197.2z"/>
	<path class="st8" d="M328.4,166.3l-3-1.7c-0.7-0.5-1.1-1.3-0.8-2.1l0,0c0.1-0.6,0.7-1,1.3-0.9c0.1,0,0.3,0.1,0.4,0.2l3,1.7
		c0.7,0.5,1.1,1.3,0.8,2.2l0,0c-0.1,0.6-0.7,1-1.3,0.8C328.7,166.4,328.5,166.4,328.4,166.3z"/>
	<path class="st8" d="M325.6,178.7l-3.7-2.2c-0.7-0.5-1.1-1.3-0.8-2.2l0,0c0.1-0.6,0.7-1,1.3-0.8c0.1,0,0.3,0.1,0.4,0.2l3.7,2.1
		c0.7,0.5,1,1.3,0.8,2.2l0,0c-0.1,0.6-0.7,1-1.3,0.9C325.8,178.8,325.7,178.7,325.6,178.7z"/>
	<path class="st8" d="M340.1,187l-9.8-5.7c-0.7-0.5-1-1.3-0.8-2.2l0,0c0.1-0.6,0.7-1,1.3-0.9c0.1,0,0.3,0.1,0.4,0.2l9.8,5.7
		c0.7,0.5,1.1,1.3,0.8,2.2l0,0c-0.1,0.6-0.7,1-1.3,0.8C340.3,187.2,340.2,187.1,340.1,187z"/>
	<path class="st8" d="M327.2,186.6l-7.1-4.1c-0.7-0.5-1-1.3-0.8-2.1l0,0c0.1-0.6,0.7-1,1.3-0.9c0.1,0,0.3,0.1,0.4,0.2l7.1,4.1
		c0.7,0.5,1.1,1.3,0.8,2.2l0,0c-0.1,0.6-0.7,1-1.3,0.9C327.4,186.7,327.3,186.7,327.2,186.6z"/>
	<path class="st8" d="M368.4,203.5l-4.5-2.6c-0.7-0.5-1.1-1.3-0.8-2.2l0,0c0.1-0.6,0.7-1,1.4-0.8c0.1,0,0.2,0.1,0.3,0.1l4.5,2.6
		c0.7,0.5,1.1,1.3,0.8,2.2l0,0c-0.1,0.6-0.7,1-1.3,0.9C368.7,203.6,368.6,203.6,368.4,203.5z"/>
	<path class="st8" d="M351.1,165.3l-12.5-7.2c-0.7-0.5-1.1-1.3-0.8-2.2l0,0c0.1-0.6,0.7-1,1.3-0.8c0.1,0,0.3,0.1,0.4,0.2l12.5,7.2
		c0.7,0.5,1.1,1.3,0.8,2.2l0,0c-0.1,0.6-0.7,1-1.3,0.9C351.3,165.5,351.2,165.4,351.1,165.3z"/>
	<path class="st19" d="M352.5,159.2l-21.8-12.6c-0.7-0.5-1.1-1.3-0.8-2.1l0,0c0.1-0.6,0.7-1,1.3-0.9c0.1,0,0.3,0.1,0.4,0.2
		l21.8,12.6c0.7,0.5,1,1.3,0.8,2.2l0,0c-0.1,0.6-0.7,1-1.3,0.9C352.8,159.3,352.7,159.3,352.5,159.2z"/>
	<path class="st19" d="M339.7,165.8l-12.5-7.2c-0.7-0.5-1.1-1.3-0.8-2.2l0,0c0.1-0.6,0.7-1,1.3-0.8c0.1,0,0.3,0.1,0.4,0.2l12.5,7.2
		c0.7,0.5,1.1,1.3,0.8,2.2l0,0c-0.2,0.6-0.8,1-1.4,0.8C339.9,165.9,339.8,165.9,339.7,165.8z"/>
	<path class="st19" d="M360.5,170.8l-4.5-2.6c-0.7-0.5-1.1-1.3-0.8-2.2l0,0c0.1-0.6,0.7-1,1.3-0.8c0.1,0,0.3,0.1,0.4,0.2l4.5,2.6
		c0.7,0.5,1.1,1.3,0.8,2.2l0,0c-0.1,0.6-0.7,1-1.3,0.8C360.8,170.9,360.7,170.9,360.5,170.8z"/>
	<path class="st19" d="M406.7,169.4l-26.9-15.5c-0.7-0.5-1.1-1.3-0.8-2.2l0,0c0.1-0.6,0.7-1,1.3-0.9c0.1,0,0.3,0.1,0.4,0.2
		l26.9,15.5c0.7,0.5,1.1,1.3,0.8,2.2l0,0c-0.1,0.6-0.7,1-1.3,0.9C407,169.6,406.8,169.5,406.7,169.4z"/>
	<path class="st20" d="M338.7,179.2l-15-8.7c-0.7-0.5-1.1-1.3-0.8-2.2l0,0c0.1-0.6,0.7-1,1.3-0.9c0.1,0,0.3,0.1,0.4,0.2l15,8.7
		c0.7,0.5,1.1,1.3,0.8,2.2l0,0c-0.1,0.6-0.7,1-1.3,0.9C338.9,179.3,338.8,179.3,338.7,179.2z"/>
	<path class="st20" d="M340.9,131.5l-11.1-6.4c-0.7-0.5-1.1-1.3-0.8-2.2l0,0c0.1-0.6,0.7-1,1.3-0.8c0.1,0,0.3,0.1,0.4,0.2l11,6.4
		c0.7,0.5,1.1,1.3,0.8,2.2l0,0c-0.1,0.6-0.7,1-1.3,0.8C341.2,131.6,341,131.5,340.9,131.5z"/>
	<path class="st19" d="M324.8,192.2l-12.8-7.4c-0.7-0.5-1-1.3-0.8-2.2l0,0c0.1-0.6,0.7-1,1.3-0.9c0.1,0,0.3,0.1,0.4,0.2l12.8,7.4
		c0.7,0.5,1.1,1.3,0.8,2.2l0,0c-0.1,0.6-0.7,1-1.3,0.9C325.1,192.4,325,192.3,324.8,192.2z"/>
	<path class="st8" d="M409.7,155.6l-5.5-3.2c-0.5-0.3-0.8-1-0.6-1.6l0,0c0.1-0.4,0.5-0.7,0.9-0.7c0.1,0,0.2,0.1,0.4,0.2l5.5,3.2
		c0.5,0.3,0.8,1,0.6,1.6l0,0c-0.1,0.4-0.5,0.7-0.9,0.7C410,155.7,409.8,155.7,409.7,155.6z"/>
	<path class="st8" d="M420.2,161.6l-5.5-3.2c-0.5-0.3-0.8-1-0.6-1.6l0,0c0.1-0.4,0.5-0.7,0.9-0.7c0.1,0,0.2,0.1,0.4,0.2l5.5,3.2
		c0.5,0.3,0.8,1,0.6,1.6l0,0c-0.1,0.4-0.5,0.7-0.9,0.7C420.4,161.8,420.3,161.7,420.2,161.6z"/>
	<path class="st8" d="M430.6,167.7l-5.5-3.2c-0.5-0.3-0.8-1-0.6-1.6l0,0c0.1-0.4,0.5-0.7,0.9-0.6c0.1,0,0.2,0.1,0.3,0.1l5.5,3.2
		c0.5,0.3,0.8,1,0.6,1.6l0,0c-0.1,0.4-0.5,0.7-1,0.6C430.8,167.8,430.7,167.7,430.6,167.7z"/>
	<path class="st20" d="M435.7,170.6l-0.2-0.1c-0.5-0.3-0.8-1-0.6-1.6l0,0c0.1-0.4,0.5-0.7,0.9-0.7c0.1,0,0.2,0.1,0.4,0.2l0.2,0.1
		c0.5,0.3,0.8,1,0.6,1.6l0,0c-0.1,0.4-0.5,0.7-0.9,0.7C436,170.8,435.8,170.7,435.7,170.6z"/>
	
		<linearGradient id="SVGID_11_" gradientUnits="userSpaceOnUse" x1="104.1399" y1="245.5605" x2="202.551" y2="245.5605" gradientTransform="matrix(1 0 0 -1 0 452)">
		<stop  offset="0" style="stop-color:#15A0DB"/>
		<stop  offset="1" style="stop-color:#007AAE"/>
	</linearGradient>
	<path class="st21" d="M153.3,234.7c-3.5,0-7-0.9-10-2.7l0,0l-36.7-21.2c-2.4-1.5-3.2-4.6-1.8-7c0.4-0.7,1-1.3,1.8-1.8l36.7-21.2
		c6.2-3.6,13.8-3.6,20,0l36.7,21.2c2.4,1.4,3.3,4.5,1.9,6.9c-0.4,0.8-1.1,1.4-1.9,1.9L163.3,232
		C160.3,233.8,156.8,234.7,153.3,234.7z M144.5,229.9c5.5,3.1,12.2,3.1,17.7,0l36.7-21.2c1.3-0.7,1.7-2.4,1-3.7
		c-0.2-0.4-0.6-0.8-1-1L162.1,183c-5.5-3.1-12.2-3.1-17.7,0l-36.7,21.2c-1.3,0.7-1.7,2.4-1,3.7c0.2,0.4,0.6,0.8,1,1L144.5,229.9z"/>
	<ellipse class="st3" cx="153.1" cy="206.9" rx="25.2" ry="14.5"/>
	
		<radialGradient id="SVGID_12_" cx="112.8222" cy="325.842" r="211.973" gradientTransform="matrix(1 0 0 -1 0 452)" gradientUnits="userSpaceOnUse">
		<stop  offset="0" style="stop-color:#0584C2"/>
		<stop  offset="0.15" style="stop-color:#015F7C"/>
		<stop  offset="0.41" style="stop-color:#075B7A"/>
		<stop  offset="0.93" style="stop-color:#005068"/>
	</radialGradient>
	<path class="st22" d="M190.4,103.3h-71.8l6.7,77.6l0,0c0,4.3,2.8,8.6,8.6,11.9c11.4,6.6,29.9,6.6,41.3,0c5.7-3.3,8.5-7.6,8.5-11.9
		L190.4,103.3z"/>
	<path class="st23" d="M190.4,103.3h-71.8l1.1,12.8c1.9,2.3,4.1,4.4,6.7,6c13.7,9.1,36.3,10.8,51.7,4.3l-2.4,56.8
		c-0.1,2.5-1,4.9-2.6,6.8c-2.3,2.7-6.8,5.9-15.4,7.8c6.1-0.3,12-1.9,17.4-4.8c5.7-3.3,8.5-7.6,8.5-11.9l5.4-62.3l0,0L190.4,103.3z"
		/>
	<ellipse class="st23" cx="154.6" cy="103.3" rx="35.9" ry="20.7"/>
	<ellipse class="st23" cx="154.6" cy="96" rx="30.9" ry="17.8"/>
	
		<linearGradient id="SVGID_13_" gradientUnits="userSpaceOnUse" x1="116.5656" y1="352.047" x2="192.5989" y2="352.047" gradientTransform="matrix(1 0 0 -1 0 452)">
		<stop  offset="0" style="stop-color:#15A0DC"/>
		<stop  offset="0.25" style="stop-color:#007AAE"/>
		<stop  offset="0.55" style="stop-color:#00739B"/>
	</linearGradient>
	<path class="st24" d="M192.6,102.4L192.6,102.4L192.6,102.4c0,0,0-0.1,0-0.1l-0.7-6.9v0.1c-0.3-5.3-3.9-10.5-10.9-14.5
		c-14.6-8.4-38.2-8.4-52.7,0c-7.1,4.1-10.8,9.5-10.9,14.9l0,0l-0.7,6.2c0,0.2,0,0.3,0,0.5v0.1l0,0c-0.4,5.9,3.3,11.9,11.1,16.4
		c14.9,8.6,38.9,8.6,53.8,0C189.3,114.3,193,108.3,192.6,102.4z"/>
	
		<linearGradient id="SVGID_14_" gradientUnits="userSpaceOnUse" x1="123.7061" y1="355.9682" x2="185.4712" y2="355.9682" gradientTransform="matrix(1 0 0 -1 0 452)">
		<stop  offset="0" style="stop-color:#005068"/>
		<stop  offset="1" style="stop-color:#015F7C"/>
	</linearGradient>
	<ellipse class="st25" cx="154.6" cy="96" rx="30.9" ry="17.8"/>
	
		<linearGradient id="SVGID_15_" gradientUnits="userSpaceOnUse" x1="122.2319" y1="355.9682" x2="183.9969" y2="355.9682" gradientTransform="matrix(1 0 0 -1 0 452)">
		<stop  offset="0" style="stop-color:#005068"/>
		<stop  offset="1" style="stop-color:#095C77"/>
	</linearGradient>
	<ellipse class="st26" cx="153.1" cy="96" rx="30.9" ry="17.8"/>
	<path class="st23" d="M136.4,86.1c12.1-7,31.6-7,43.7,0l0.4,0.3c-1.3-1.1-2.6-2.1-4.1-2.9c-12.1-7-31.6-7-43.7,0s-12,17.9-0.4,24.9
		C124.6,101.5,125.9,92.1,136.4,86.1z"/>
	
		<linearGradient id="SVGID_16_" gradientUnits="userSpaceOnUse" x1="123.6686" y1="364.083" x2="201.548" y2="364.083" gradientTransform="matrix(1 0 0 -1 0 452)">
		<stop  offset="0" style="stop-color:#027DAA"/>
		<stop  offset="0.37" style="stop-color:#027BA8"/>
		<stop  offset="0.57" style="stop-color:#0173A1"/>
		<stop  offset="0.61" style="stop-color:#01709F"/>
		<stop  offset="0.68" style="stop-color:#01668D"/>
		<stop  offset="0.79" style="stop-color:#005A79"/>
		<stop  offset="0.9" style="stop-color:#00526C"/>
		<stop  offset="1" style="stop-color:#005068"/>
	</linearGradient>
	<path class="st27" d="M132.7,86.5c12.1-7,31.6-7,43.7,0c5.3,3.1,8.3,7,9,11.1c0.8-5.1-2.2-10.3-9-14.1c-12.1-7-31.6-7-43.7,0
		c-6.7,3.8-9.7,9.1-9,14.1C124.4,93.5,127.4,89.6,132.7,86.5z"/>
	
		<radialGradient id="SVGID_17_" cx="107.079" cy="373.6208" r="138.6574" gradientTransform="matrix(1 0 0 -1 0 452)" gradientUnits="userSpaceOnUse">
		<stop  offset="0" style="stop-color:#15A0DC"/>
		<stop  offset="0.25" style="stop-color:#15A0DC"/>
		<stop  offset="0.73" style="stop-color:#15A0DC"/>
	</radialGradient>
	<path class="st28" d="M181.2,81c-14.5-8.6-38.2-8.8-52.9-0.5s-14.8,22-0.3,30.5s38.2,8.8,52.9,0.5C195.6,103.2,195.7,89.6,181.2,81
		z M176.4,108.6c-4.4,2.4-9.2,4-14.1,4.6l-0.6-1.8c-0.2-0.8-0.9-1.3-1.7-1.3H149c-0.8,0-1.5,0.5-1.7,1.3l-0.6,1.8
		c-4.9-0.7-9.7-2.2-14.1-4.6c-12.1-7-12.1-18.3,0-25.2c12.1-7,31.6-7,43.7,0C188.4,90.4,188.5,101.7,176.4,108.6z"/>
	<path class="st8" d="M176.4,82.1c-12.1-7-31.6-7-43.7,0c-6.3,3.6-9.3,8.5-9,13.3c0.3-4.3,3.3-8.6,9-11.9c12.1-7,31.6-7,43.7,0
		c5.7,3.3,8.7,7.6,9,11.9C185.7,90.6,182.7,85.8,176.4,82.1z"/>
	<path class="st8" d="M180.9,110.2c-14.7,8.3-38.4,8.1-52.9-0.5c-6.9-4.1-10.5-9.3-10.8-14.6c-0.3,5.7,3.3,11.5,10.8,15.9
		c14.5,8.6,38.2,8.8,52.9,0.5c7.7-4.4,11.4-10.3,11.1-16C191.7,100.9,188,106.2,180.9,110.2z"/>
	<path class="st29" d="M151.3,112.4h6.6c0.5,0,0.8,0.4,0.8,0.8v0.1c0,0.5-0.4,0.8-0.8,0.8h-6.6c-0.5,0-0.8-0.4-0.8-0.8v-0.1
		C150.4,112.8,150.8,112.4,151.3,112.4z"/>
	
		<linearGradient id="SVGID_18_" gradientUnits="userSpaceOnUse" x1="149.6916" y1="338.9309" x2="160.4729" y2="338.9309" gradientTransform="matrix(1 0 0 -1 0 452)">
		<stop  offset="0" style="stop-color:#005068"/>
		<stop  offset="0.52" style="stop-color:#005068"/>
		<stop  offset="0.61" style="stop-color:#005068"/>
		<stop  offset="1" style="stop-color:#005068"/>
	</linearGradient>
	<path class="st30" d="M157.9,112.5h-6.6c-0.5,0-0.8,0.4-0.8,0.8v0.1c0,0.1,0,0.2,0,0.2c0.1-0.4,0.4-0.6,0.8-0.6h6.6
		c0.4,0,0.7,0.3,0.8,0.6c0-0.1,0-0.2,0-0.2v-0.1C158.7,112.9,158.3,112.5,157.9,112.5z"/>
	<path class="st31" d="M160.7,156.1c-0.2-4.2-2.2-8.2-5.3-11c0.1,0.1,0.2,0.3,0.3,0.4c0.2,0.3,0.3,0.6,0.3,1c0.1,0.5,0.1,1,0.1,1.5
		c0,0.5-0.1,1-0.3,1.5c-0.1,0.2-0.2,0.5-0.4,0.7c-0.3,0.4-0.6,0.7-0.9,1.1c-0.7,0.6-1.5,1-2.4,1.2c-0.3,0.1-0.6,0.1-0.8,0.2H151l0,0
		l0,0l0.1-0.1l0.2-0.2c0.1-0.1,0.2-0.2,0.3-0.3c0.2-0.2,0.4-0.4,0.6-0.6c0.2-0.2,0.3-0.4,0.5-0.6c0.1-0.2,0.3-0.4,0.4-0.6
		c0.1-0.2,0.2-0.4,0.3-0.6c0.1-0.2,0.1-0.4,0.2-0.6c0-0.2,0.1-0.4,0.1-0.6c0-0.2,0-0.3,0-0.5v-0.5v-0.4c0-0.1,0-0.3-0.1-0.4
		l-0.1-0.3l-0.1-0.3l-0.1-0.2c0,0,0-0.1,0-0.1l0,0c-1.4-4.3-7.5-4.9-7.5-4.9c0.2,0,0.6,0.4,0.7,0.5c0.2,0.2,0.4,0.4,0.6,0.6
		c0.3,0.3,0.6,0.7,0.8,1.1c0.5,1.3,0.4,2.8-0.5,4c-0.7,0.9-1.5,1.8-2.4,2.6c-0.8,0.8-1.6,1.8-2.2,2.8c-0.6,0.9-1.1,1.9-1.6,2.9
		c-0.7,1.6-1,3.3-1,5c0,1.2,0.1,2.3,0.5,3.4c0.1,0.3,0.2,0.6,0.3,0.9c0.1,0.1,0.1,0.2,0.2,0.3v0.1l6.2,0.3c0.2,0.2,0.5,0.3,0.8,0.3
		c0.4,0,0.7-1,0.7-1c-0.4,0.6-0.8,0.5-0.8,0.5c-1.1-0.6-1.7-1.8-1.7-3c2.6,1,7.6,0.5,7.6,0.5c0.2,1.6-2.1,2.7-2.1,2.7
		s-0.9-0.7-0.8-0.5c0.3,0.3,0.6,0.7,0.9,1l1.1-0.5h5.9l0.1-0.2c0.2-0.4,0.4-0.8,0.5-1.3c0.3-1.3,0.5-2.6,0.7-3.8
		C160.6,158.7,160.7,157.4,160.7,156.1z M146.2,160.2c0.4-2.1,2.3-3.5,4.4-3.3c2-0.2,3.7,1.3,3.8,3.2c0,0.1,0,0.2,0,0.3L146.2,160.2
		z"/>
	<path class="st32" d="M159.5,165.3h-0.4h-1h-1.4h-1.4h-1.3c-0.3,0-0.5,0-0.8,0c-0.1,0-0.1,0-0.2,0.1c-0.5,0.2-0.9,0.4-1.4,0.6
		c-0.1,0-0.2,0-0.3,0h-1.1H149c-0.2,0-0.3-0.1-0.4-0.2c-0.1-0.1-0.3-0.2-0.4-0.3c-0.3-0.2-0.7-0.3-1-0.4h-0.5h-1.3l-3-0.1h-1.2
		l-1.3,0.5v1.6c0,0,0.6,0,0.8,0.2c0.1,0.2,0.1,0.4,0.1,0.6v1v0.7c0,0.3,0,0.6,0.1,0.9c0.2,0.4,0.5,0.8,0.8,1.1
		c0.2,0.1,0.3,0.2,0.5,0.2c0.2,0,0.4,0,0.6,0h1.4h1.6h0.8h0.4c0.1,0,0.3,0,0.4,0c0.1,0,0.3-0.1,0.4-0.2c0.4-0.2,0.7-0.6,1-1
		c0.2-0.4,0.4-0.9,0.5-1.4c0.1-0.5,0.2-1,0.3-1.6v-0.4h0.7h0.2h0.7c0.1,0.8,0.2,1.6,0.3,2.3c0.1,0.6,0.4,1.2,0.8,1.7
		c0.2,0.3,0.6,0.5,0.9,0.6l5,0.2c0.8-0.2,1.5-0.8,1.6-1.7l0.1-2.1c-0.1-0.2,0-0.5,0.1-0.7c0.2-0.2,0.7-0.1,0.7-0.1v-1.6L159.5,165.3
		z M148.5,167c0,0.4,0,0.9-0.1,1.4v0.6c0,0.2,0,0.4-0.1,0.6c-0.1,0.2-0.1,0.3-0.2,0.5c-0.1,0.2-0.3,0.4-0.5,0.6
		c-0.2,0.2-0.4,0.3-0.7,0.4c-0.4,0-0.7,0-1.1,0h-1.2h-1.5h-0.6c-0.7,0-1.2-0.5-1.3-1.1c0-0.4,0-0.8,0-1.2s0-1.1,0-1.7v-0.3
		c0-0.5,0.4-1,0.9-1.1h1.9l2.8,0.1c0.3,0,0.7,0,1,0.2c0.3,0.1,0.5,0.4,0.6,0.7c0,0.1,0,0.2,0,0.2C148.5,166.8,148.5,166.9,148.5,167
		z M158,171.4h-0.8h-1.1h-1.2h-1c-0.2,0-0.3,0-0.5,0c-0.5-0.1-1-0.4-1.3-0.8c-0.3-0.4-0.4-0.8-0.4-1.2v-1c0-0.2,0-0.5,0-0.7
		c0-0.2,0-0.5,0-0.7c0.1-0.2,0.2-0.4,0.4-0.5c0.1-0.1,0.2-0.2,0.4-0.2l0.2-0.1l0.3-0.1h0.4h0.8h1h1.1h1h0.6c0.2,0,0.5,0.1,0.7,0.2
		c0.1,0.1,0.3,0.2,0.4,0.4c0.1,0.2,0.1,0.4,0.1,0.6c0,0.9-0.1,3.1-0.1,3.2C159.1,170.9,158.6,171.3,158,171.4L158,171.4z"/>
	<path class="st33" d="M147.3,165.6l-5.1-0.1c-0.5,0.1-0.8,0.6-0.9,1.1c0,0.6,0,1.1-0.1,1.6v1.4c0,0.3,0.1,0.5,0.2,0.7
		c0.2,0.2,0.5,0.4,0.8,0.5h0.1h0.6h1.4h1.5c0.3,0,0.6,0,0.9,0c0.3,0,0.5-0.1,0.8-0.3c0.3-0.2,0.6-0.6,0.8-0.9
		c0.2-0.5,0.2-0.9,0.2-1.4c0-0.3,0-0.6,0-0.9c0-0.3,0-0.6,0-0.9c-0.2-0.5-0.7-0.8-1.2-0.9L147.3,165.6z M142.2,166.7
		c0,0,0,2.6-0.1,2.7s0.4,0.9,0.4,0.9c-0.4-0.1-0.8-0.9-0.8-0.9c0-0.9,0-1.9,0.1-2.8c0.1-0.4,0.9-0.9,0.9-0.9
		C142.3,166,142.2,166.7,142.2,166.7L142.2,166.7z"/>
	<path class="st33" d="M159.2,167.1c0-0.5-0.3-1-0.8-1.2h-0.5h-1.2h-1.4h-1.3h-0.7c-0.2,0-0.4,0.1-0.6,0.2c-0.1,0.1-0.3,0.1-0.4,0.2
		c-0.1,0.1-0.2,0.2-0.3,0.4c-0.1,0.2-0.1,0.3-0.1,0.5v0.4v1.1v0.4c0,0.5,0.2,1,0.5,1.4c0.2,0.2,0.5,0.4,0.8,0.6
		c0.1,0.1,0.2,0.1,0.3,0.1l4.5,0.1c1.3-0.4,1.2-1.1,1.2-1.1S159.2,168,159.2,167.1z M158.7,170c0,0-0.4,0.8-0.8,0.9
		c0,0,0.5-0.7,0.4-0.9c-0.1-0.2,0-2.7,0-2.7s-0.1-0.8-0.4-1c0,0,0.7,0.5,0.8,0.9C158.8,168.1,158.7,169,158.7,170L158.7,170z"/>
	<path class="st32" d="M141.8,166.7c-0.1,0.3-0.1,0.6-0.1,0.8c0,0.4,0,0.8,0,1.2c0,0.2,0,0.3,0,0.5c0,0.1,0,0.2,0,0.3
		c0,0.1,0.1,0.2,0.1,0.3l0.2,0.3c0.1,0.2,0.3,0.3,0.5,0.4l-0.2-0.3c-0.1-0.1-0.1-0.2-0.2-0.3c0-0.1,0-0.3,0-0.4c0-0.1,0-0.2,0-0.2
		c0-0.1,0-0.3,0-0.4c0-0.4,0-0.7,0-1.1c0-0.2,0-0.3,0-0.5c0-0.2,0.1-0.5,0.1-0.7c0.1-0.2,0.2-0.4,0.3-0.5
		C142.6,165.8,141.9,166.2,141.8,166.7z"/>
	<path class="st32" d="M157.9,166.2c0.1,0.1,0.2,0.3,0.3,0.5c0.1,0.2,0.1,0.4,0.1,0.6c0,0.1,0,0.2,0,0.4v1.1c0,0.3,0,0.6,0,1
		c0,0.1,0,0.1,0,0.2c0,0.2-0.1,0.4-0.2,0.6l-0.2,0.3c0.2-0.1,0.4-0.2,0.5-0.4l0.2-0.3l0.1-0.2c0-0.1,0-0.2,0-0.2c0-0.1,0-0.3,0-0.4
		c0-0.4,0-0.8,0-1.2c0-0.3,0-0.6,0-1c0,0,0-0.1,0-0.1C158.7,166.7,157.9,166.2,157.9,166.2z"/>
	<path class="st32" d="M146.9,173.9c1.9,1.4,4.4,1.5,6.4,0.2c-0.8,0.9-2,1.4-3.2,1.4C148.8,175.5,147.6,174.9,146.9,173.9z"/>
	<path class="st32" d="M150.4,178.4h0.7c0.2,0,0.3,0.1,0.4,0.2c0.2,0.3,0.3,0.6,0.4,0.9v0.5c0,0,0,0.2-0.3,0
		c-0.3-0.2-0.3-0.3-0.4-0.3c-0.1,0-0.2-0.1-0.3,0c-0.1,0.1,0,0.4-0.7,0.6c0,0-0.1,0.1-0.3-0.2c-0.1-0.3-0.1-0.6,0-0.9
		c-0.1,0-0.2,0-0.3,0.1c-0.4,0.3-0.8,0.5-1.2,0.6c-0.3,0.1-0.1-0.5-0.1-0.5c0.2-0.2,0.4-0.4,0.6-0.5c0.1,0,0-0.4,0-0.4
		s-0.2-0.1-0.1-0.2c0.1-0.1,0.3-0.2,0.5-0.2c0.1,0,0.3,0.3,0.6,0.3C150,178.5,150.2,178.5,150.4,178.4z"/>
	<path class="st34" d="M156.9,113.3c0,0,20-6.7,11.9-29.8s-23.9-30.1-17.6-48.5c0,0-10,14.9-0.7,35.1c9.3,20.2,11.4,17.9,11.3,27.5
		c0.1,6.6-3.6,12.6-9.4,15.6L156.9,113.3z"/>
	<path class="st34" d="M158.7,38.3c0,0-2.1-13.8,10.8-27.7c0,0-11.4,25.5-7.7,38.1C161.9,48.8,158.9,40.8,158.7,38.3z"/>
</g>
</svg>
